<?xml version="1.0" encoding="utf-8"?>
<!-- Generator: Adobe Illustrator 15.0.0, SVG Export Plug-In . SVG Version: 6.00 Build 0)  -->
<!DOCTYPE svg PUBLIC "-//W3C//DTD SVG 1.1//EN" "http://www.w3.org/Graphics/SVG/1.1/DTD/svg11.dtd">
<svg version="1.1" id="Layer_1" xmlns="http://www.w3.org/2000/svg" xmlns:xlink="http://www.w3.org/1999/xlink" x="0px" y="0px"
	 width="695px" height="226.77px" viewBox="0 0 695 226.77" enable-background="new 0 0 695 226.77" xml:space="preserve">
<g>
	<path fill="#FFFFFF" d="M211.604,209.133H19.994V17.523h191.611V209.133z M21.836,207.291h187.925V19.365H21.836V207.291z"/>
	<path fill="#FFFFFF" d="M175.294,100.616l4.909-3.583c-1.856-1.989-3.847-4.377-3.847-8.225c0-2.918,1.991-6.102,4.51-7.428
		c-1.326-1.592-3.45-3.049-6.499-3.049c-3.981,0-7.298,2.918-7.298,6.763c0,2.652,1.726,4.909,3.717,5.97
		C170.786,94.778,172.512,98.093,175.294,100.616 M149.033,74.483l4.111-7.297h-6.103c0,1.326-1.195,2.785-2.656,2.785
		c-1.588,0-2.65-1.06-2.65-2.785h-5.439c0,1.591-1.193,2.785-2.653,2.785c-1.459,0-2.654-1.194-2.654-2.785h-6.102l3.583,7.029
		c2.788-0.264,5.438-0.395,8.091-0.395C141.467,73.82,145.716,74.083,149.033,74.483 M137.888,139.217
		c-0.663-1.194-1.326-2.655-1.326-5.306c0-3.449,1.989-6.368,6.236-8.226c2.786-1.327,4.905-2.52,8.622-4.377
		c8.754-4.51,11.806-13,11.806-21.754c0-4.377-1.196-7.828-2.653-10.746c0.396,2.389,0.795,4.379,0.795,6.766
		c0,9.152-3.183,15.917-11.541,20.03c-5.304,2.65-7.961,3.713-11.145,5.306c-4.506,2.386-7.03,5.439-7.03,9.153
		C131.652,134.704,134.039,138.156,137.888,139.217 M132.714,137.492c-1.457-1.461-3.049-4.112-3.049-7.561
		c0-4.378,2.917-8.092,8.09-10.746c4.51-2.124,7.162-3.185,11.14-5.04c8.36-4.113,10.879-11.144,10.879-18.703
		c0-7.296-2.386-11.012-4.378-13.4c1.459,2.788,1.858,6.104,1.858,8.89c0,8.091-2.386,15.121-11.806,18.834
		c-4.776,1.989-7.828,2.653-11.939,4.508c-6.502,3.053-9.021,6.635-9.021,11.938C124.49,131.257,127.673,136.031,132.714,137.492
		 M127.673,136.432c-2.256-1.857-5.174-4.909-5.174-10.349c0-5.703,2.388-9.947,9.817-13.131c4.778-1.991,7.297-2.919,11.807-4.644
		c9.551-3.582,11.54-10.614,11.54-17.511c0-6.63-2.389-10.479-5.306-12.999c1.725,2.122,2.787,5.705,2.787,9.417
		c0,8.754-3.317,13.664-12.735,16.982c-3.847,1.193-7.958,2.385-12.205,3.978c-7.692,2.917-11.673,7.162-11.673,14.326
		C116.531,129.932,122.235,135.503,127.673,136.432 M122.368,135.503c-5.307-2.654-7.828-8.357-7.828-13.4
		c0-7.295,4.511-12.468,12.07-15.255c4.648-1.723,8.36-2.784,13.003-4.376c9.021-3.184,11.939-7.427,11.939-15.52
		c0-4.643-1.725-8.621-4.51-10.876c0.927,1.061,1.193,2.387,1.193,3.582c0,2.254-1.193,3.315-2.918,3.315
		c-1.062,0-2.124-0.663-2.254-1.723c0.53,0.396,0.929,0.53,1.461,0.53c1.457,0,2.253-1.062,2.253-2.521
		c0-2.255-2.122-3.45-4.244-3.714c-1.858-0.266-3.849-0.266-6.103-0.266c-2.253,0-4.377,0.133-7.163,0.266
		c1.723,2.389,7.429,1.726,9.152,2.919c-1.461-0.131-2.919-0.131-4.38,0.264c0,0.931-0.395,1.991-1.324,1.991
		c-1.725,0-2.521-1.856-3.714-5.174l-6.766,0.532c-1.062,0.131-1.459,0.53-1.329,1.326l0.666,6.632c0,0.264,0.266,0.396,0.532,0.396
		c0.264,0,0.528-0.132,0.661-0.532c0.266-0.529,1.064-1.723,3.051-1.723c2.918,0,5.174,2.654,5.305,5.703
		c-1.06-1.457-3.447-2.785-7.428-2.785c-3.05,0-5.568,0.929-9.549,0.929c-4.244,0-6.632-1.593-6.632-3.581
		c0-0.929,0.13-1.461,0.663-2.124c-1.726,0.795-3.052,2.257-3.052,4.642c0,2.918,2.125,5.972,8.356,5.972
		c5.704,0,8.36-3.583,13.531-3.583c2.389,0,3.583,1.193,3.583,2.521c0,1.194-1.064,2.256-2.919,2.256
		c-2.256,0-3.844-1.193-4.643-2.388c-0.133-0.267-0.266-0.397-0.532-0.397c-0.396,0-0.53,0.265-0.53,0.529l0.134,6.367
		c0,0.796,0.396,1.195,1.327,1.062c3.978-0.398,8.089-0.93,11.939-1.193c7.162-0.663,12.072-5.441,12.072-10.746
		c0-0.796,0-1.461-0.134-2.255c0.662,1.062,0.927,2.122,0.927,3.448c0,4.909-2.651,8.624-11.141,10.878
		c-4.512,1.192-7.828,1.723-11.677,2.652c-10.214,2.388-16.844,10.214-16.844,18.969
		C108.573,127.146,114.276,134.442,122.368,135.503 M77.93,87.615c0.528-1.193,0.661-2.255,0.661-3.051
		c0-1.724-0.794-3.315-1.59-3.978c1.988,0,3.714,1.457,3.714,3.448C80.715,85.89,79.522,87.085,77.93,87.615 M102.337,119.186
		l4.244-2.255c1.459-8.887,6.764-15.122,16.051-17.376c-4.908,0.264-9.154,0.397-15.121,0.662
		c-6.367,0.264-16.847,1.062-24.144,1.593c-1.459,0.134-2.386-0.398-2.786-1.593c-0.399-1.324-1.192-3.847-1.326-5.305
		c-0.133-1.196,0.133-1.991,1.193-2.785c2.122-1.461,4.244-3.184,4.244-6.766c0-3.847-3.317-6.367-6.367-6.367
		c-1.062,0-1.856,0.131-2.519,0.396c-0.796-0.528-1.592-0.927-3.185-0.927c-2.254,0-4.243,1.458-4.773,2.652
		c-3.85-0.264-6.899,2.521-6.634,6.235c0.532-0.532,1.592-1.06,2.785-1.06c1.46,0,2.788,1.06,2.788,2.652
		c0,1.459-0.269,3.317-0.269,5.304c0,6.105,4.91,9.289,4.91,12.47c0,1.593-1.193,2.919-2.785,2.919
		c0.928,3.317,3.979,5.041,8.091,5.041c2.655,0,5.041-0.264,8.89-0.264C96.632,114.412,101.406,115.604,102.337,119.186
		 M143.192,156.726h1.33c-0.137-4.244-1.196-7.164-2.919-10.214c-0.93-1.725-2.124-3.58-3.053-4.775
		c-0.53-0.795-1.195-1.059-1.989-1.059c-0.532,0-0.929,0.395-0.532,1.059c1.064,1.723,2.521,4.378,4.379,8.49
		c-1.592,0.264-1.99,1.061-1.99,2.387C138.418,154.734,140.409,156.726,143.192,156.726 M72.754,88.146
		c0.132-3.716-1.457-5.704-3.712-6.633c0.396-0.133,0.927-0.399,1.726-0.399c1.723,0,3.579,1.461,3.579,3.716
		C74.346,86.023,73.947,87.349,72.754,88.146 M157.785,181.531c-0.53-1.193-2.255-2.386-4.377-2.386
		c-1.195,0-1.989,0.265-2.521,0.53c0.133-1.062,1.195-2.255,3.317-2.255C156.723,177.421,158.05,179.41,157.785,181.531
		 M156.989,187.236c-0.796-0.929-2.12-1.723-3.845-1.723c-2.124,0-3.184,0.928-3.716,1.59c-0.264-1.59,1.062-3.581,3.583-3.581
		C155.663,183.522,156.989,185.379,156.989,187.236 M62.673,123.958c0.927-2.255,3.052-3.845,5.571-4.374
		c0.532-0.798,1.193-1.459,1.858-1.991l-4.511-18.837c-0.53-1.324-0.928-2.65-0.928-4.51c0-1.987,0.398-3.978,0.398-5.039
		c0-0.929-0.531-1.193-1.063-1.193c-0.398,0-0.661,0-0.793,0.132v0.531c0,3.049-1.858,5.438-4.909,5.438s-5.439-2.52-5.439-5.438
		c0-2.918,2.388-5.308,5.439-5.308c0.532,0,1.193,0,1.989,0.265c0.929-2.386,3.847-4.51,6.898-4.111
		c-2.122-2.654-5.306-4.246-8.887-4.246c-7.694,0-13.795,5.573-13.795,13.4c0,7.293,5.967,13.131,13.396,13.266L62.673,123.958z
		 M83.236,152.481c1.989,0,4.111-1.063,6.1-3.05c3.581-3.452,8.622-8.624,11.675-10.615c2.652-1.723,4.377-2.385,6.101-2.385
		c1.062,0,1.86,0.266,2.654,1.061l4.51-3.45c-5.173-3.847-7.561-8.888-7.695-15.121c-7.162,3.845-12.335,9.153-18.305,14.192
		c-1.06,0.798-1.592,1.193-2.521,1.193c-0.928,0-1.723-0.927-3.314-2.521c-1.326-1.324-1.593-2.12-1.593-3.05
		c0-1.591,0.528-2.122,0.528-4.246c0-4.244-3.313-6.631-6.498-6.631c-2.653,0-4.643,1.458-5.306,3.317
		c-3.581,0.262-5.838,2.917-5.838,5.701c0,0.665,0.135,1.196,0.265,1.591c-1.326,0.799-2.651,2.389-2.651,4.513
		c0,2.257,1.192,4.379,3.184,5.041c-0.266-0.399-0.399-0.929-0.399-1.591c0-1.193,1.06-2.256,2.521-2.256
		c1.195,0,1.99,0.398,2.918,1.459c1.196,1.591,2.389,3.052,4.375,4.777c1.86,1.59,3.983,2.65,5.972,3.845
		c1.195,0.795,2.122,1.857,2.122,3.449c0,1.062-0.796,2.256-2.388,2.653C80.316,151.817,81.644,152.481,83.236,152.481
		 M75.672,126.614c-0.133-2.656-2.12-4.774-4.643-5.306c0.399-0.269,1.064-0.662,2.124-0.662c1.858,0,3.317,1.589,3.317,3.312
		C76.47,125.287,76.071,125.951,75.672,126.614 M90.396,196.389c-0.528-0.663-0.794-1.327-0.794-2.12
		c0-1.592,1.326-2.786,3.185-2.786c2.918,0,4.51,3.184,8.357,3.184c4.377,0,6.498-3.184,10.478-3.184
		c1.991,0,4.777,1.194,4.777,3.713c0,0.398-0.136,0.795-0.398,1.063c4.511,0,7.691-3.848,7.691-10.218
		c0-8.887-0.262-12.469-0.396-17.375c3.45-0.135,6.764-1.858,6.231-7.296c-0.927,0.794-1.986,1.193-3.18,1.193
		c-1.592,0-2.787-1.193-2.787-2.918c0-0.798,0-1.725,0.131-2.655l15.521-0.398c-1.458-0.795-2.519-2.385-2.519-4.243
		c0-1.326,0.53-2.254,1.592-2.787c-1.461-3.05-2.654-5.437-4.111-7.691c-0.798-1.192-1.725-2.389-3.583-2.389
		c-4.113-0.132-12.468,1.06-16.715,2.521c-3.182,1.061-6.235,3.449-6.235,8.887c0,5.043,1.726,13.93,1.592,27.857
		c0,1.992-0.53,2.654-1.723,2.919c-1.063,0.266-3.848,0.53-5.573,0.266c-0.927-0.136-1.726-0.796-2.255-2.785
		c-0.663-2.788-2.652-5.573-6.63-5.573c-3.583,0-6.768,2.653-6.236,6.634c-1.724,1.061-2.522,2.787-2.522,4.377
		c0,1.593,0.532,2.918,1.195,3.714c-0.396,0.931-0.529,1.458-0.529,2.389C84.96,194.004,87.877,196.389,90.396,196.389
		 M71.695,130.195c-0.796-1.592-2.52-2.519-4.511-2.519c-0.796,0-1.458,0.131-1.991,0.264c0.267-1.062,1.461-1.989,3.187-1.989
		C70.635,125.951,72.093,127.677,71.695,130.195 M94.909,181.531c-0.53-1.193-2.255-2.386-4.379-2.386
		c-1.193,0-1.987,0.265-2.519,0.53c0.133-1.062,1.193-2.255,3.318-2.255C93.847,177.421,95.173,179.41,94.909,181.531
		 M83.633,193.073c-0.397-0.796-0.532-1.591-0.532-2.388c0-0.796,0.135-1.458,0.399-2.122c-0.664-1.195-1.06-2.522-1.06-3.98
		c0-1.989,0.927-3.845,2.252-5.041l-8.223-35.684c-1.328-0.662-2.654-1.458-3.716-2.386c-1.856-1.594-2.918-2.786-4.644-4.775
		c-0.527-0.53-0.927-0.797-1.457-0.797c-0.796,0-1.328,0.531-1.062,1.592l1.725,8.221l3.582,2.522l9.949,42.715L83.633,193.073z
		 M94.113,187.236c-0.798-0.929-2.122-1.723-3.847-1.723c-2.122,0-3.185,0.928-3.715,1.59c-0.266-1.59,1.06-3.581,3.584-3.581
		C92.787,183.522,94.113,185.379,94.113,187.236 M28.582,197.185l8.091-6.234l9.95-42.715l3.581-2.522l7.959-34.221l-1.723-7.958
		c-1.991-0.398-3.715-0.929-5.174-1.725L28.582,197.185z M153.274,196.389c-0.53-0.663-0.795-1.327-0.795-2.12
		c0-1.592,1.326-2.786,3.184-2.786c2.918,0,4.51,3.184,8.357,3.184c4.375,0,6.5-3.184,10.478-3.184c1.991,0,4.776,1.194,4.776,3.713
		c0,0.398-0.133,0.795-0.397,1.063c4.51,0,7.693-3.848,7.693-10.218c0-8.488-0.794-17.905-1.725-27.324
		c2.388-0.53,4.643-2.92,4.643-5.972c0-1.059-0.395-2.255-1.06-3.313c-0.665,0.928-1.858,1.724-3.846,2.255
		c-2.787,0.795-6.235,1.193-8.759,1.193c-5.703,0-7.559-0.398-10.211-1.193c-0.136-3.581-2.388-6.501-4.51-8.49
		c3.315,1.324,4.774,1.989,10.081,1.989c16.979,0,27.459-11.408,27.459-24.409c0-9.419-5.97-13.795-11.409-16.979l-5.041,3.582
		c6.103,2.785,10.081,6.896,10.081,12.469c0,6.103-4.905,10.481-10.608,10.481c-6.104,0-10.879-4.379-10.879-10.351
		c0-4.506,2.12-7.823,6.101-11.009c3.979-3.182,10.083-7.028,13.399-10.61c1.725-1.86,3.182-4.777,3.049-7.033
		c2.255-1.061,3.98-3.314,3.98-6.234c0-3.845-3.712-6.763-7.692-6.763c-2.39,0-5.041,1.457-6.371,3.049
		c2.391,0.929,4.646,4.11,4.646,7.428c0,2.788-1.723,5.173-3.715,7.163c-3.052,3.053-7.03,5.308-11.409,8.89
		c-5.306,4.376-8.49,9.552-8.49,15.386c0,8.093,6.236,15.654,16.05,15.654c3.185,0,5.705-0.662,7.564-1.858
		c-3.185,3.714-9.152,5.572-15.387,5.572c-5.442,0-9.154-0.798-13.132-3.714c-3.584-2.652-6.369-8.889-6.236-13.531
		c-2.918,1.725-6.369,3.316-9.287,4.643c-4.114,1.989-5.439,4.112-5.439,7.692c0,4.777,3.317,8.492,4.774,11.275
		c1.991,3.582,2.654,6.766,2.918,10.082c0.798,8.094,5.441,11.809,13.665,11.809c3.716,0,8.621-0.267,10.612-0.532
		c0.797,3.715,1.726,8.092,1.726,11.408c0,1.992-0.532,2.654-1.726,2.919c-1.06,0.266-3.847,0.53-5.57,0.266
		c-0.927-0.136-1.725-0.796-2.257-2.785c-0.66-2.788-2.651-5.573-6.631-5.573c-3.583,0-6.765,2.653-6.235,6.634
		c-1.725,1.061-2.521,2.787-2.521,4.377c0,1.593,0.53,2.918,1.195,3.714c-0.399,0.931-0.532,1.458-0.532,2.389
		C147.835,194.004,150.756,196.389,153.274,196.389"/>
	<path fill="#FFFFFF" d="M540.245,209.135h18.904v-6.249h-11.005v-4.434h10.647v-6.088h-10.647v-4.394h11.005v-6.25h-18.904V209.135
		z M520.571,209.778c6.449,0,11.812-3.103,11.812-10.763v-17.295h-7.9v16.569c0,3.104-1.691,4.474-3.912,4.474
		c-2.216,0-3.906-1.37-3.906-4.474v-16.569h-7.903v17.295C508.762,206.676,514.124,209.778,520.571,209.778 M492.196,209.778
		c4.876,0,8.261-1.49,9.915-2.337v-12.134h-7.699v7.416c-0.565,0.121-1.169,0.2-1.773,0.2c-3.065,0-6.451-2.337-6.451-7.498
		c0-5.559,2.982-8.303,8.101-8.303c2.825,0,5.243,0.968,6.735,1.774v-6.451c-1.613-0.726-4.273-1.733-7.9-1.733
		c-9.313,0-15.563,5.766-15.563,14.713C477.56,204.38,484.532,209.778,492.196,209.778 M457.646,197.845l2.7-10.117h0.364
		l2.702,10.117H457.646z M466.434,209.135h8.104l-8.225-27.414h-11.568l-8.185,27.414h8.103l1.492-5.684h8.747L466.434,209.135z
		 M429.268,194.381v-6.815h3.185c2.136,0,3.386,1.656,3.386,3.389c0,1.733-1.25,3.427-3.386,3.427H429.268z M421.365,209.135h7.902
		v-9.638h2.015l4.755,9.638h8.91l-5.035-8.467c-0.525-0.885-1.172-1.69-1.536-1.934l0.043-0.164c2.417-1.087,5.845-3.145,5.845-7.82
		c0-4.918-3.911-9.029-10.318-9.029h-12.58V209.135z M401.09,194.381v-6.771h3.105c1.73,0,3.301,1.449,3.301,3.382
		c0,1.979-1.57,3.39-3.301,3.39H401.09z M393.188,209.135h7.901v-8.87h4.031c6.41,0,10.398-4.069,10.398-9.11
		c0-5.039-3.988-9.434-10.398-9.434h-11.933V209.135z M349.048,209.135h7.902v-16.447h0.119l8.304,16.447h9.634v-27.414h-7.897
		v16.368h-0.122l-8.224-16.368h-9.716V209.135z M333.086,209.135h7.9v-27.414h-7.9V209.135z M303.296,209.778
		c6.447,0,11.808-3.103,11.808-10.763v-17.295h-7.9v16.569c0,3.104-1.69,4.474-3.907,4.474c-2.219,0-3.909-1.37-3.909-4.474v-16.569
		h-7.903v17.295C291.483,206.676,296.844,209.778,303.296,209.778 M271.812,209.135h7.901v-21.004h6.812v-6.41h-21.566v6.41h6.854
		V209.135z M253.833,209.577c3.263,0,6.006-0.846,7.659-1.693v-6.893c-1.573,0.846-3.386,1.571-6.25,1.571
		c-2.863,0-7.014-2.177-7.014-7.137c0-4.957,3.791-7.295,7.459-7.295c2.499,0,4.231,0.565,5.763,1.329v-6.811
		c-1.612-0.725-3.627-1.292-6.854-1.292c-8.101,0-14.994,5.323-14.994,14.068C239.603,204.174,245.771,209.577,253.833,209.577"/>
	<path fill="#FFFFFF" d="M404.517,168.731c7.497,0,11.648-4.719,11.648-9.272c0-4.476-2.297-7.099-6.769-8.186
		c-1.817-0.441-2.826-0.605-4.195-0.887c-1.855-0.402-2.662-0.926-2.662-1.975c0-1.209,1.37-1.974,4.434-1.974
		c3.351,0,6.132,1.047,7.5,1.812v-6.811c-1.771-0.768-4.677-1.411-7.902-1.411c-6.809,0-11.848,3.587-11.848,9.148
		c0,4.234,2.376,6.895,6.086,7.823c2.056,0.522,3.144,0.763,4.917,1.21c1.49,0.361,2.5,0.843,2.5,1.933
		c0,1.371-1.452,2.138-4.113,2.138c-3.63,0-7.298-1.572-9.07-2.821v7.173C397.261,167.88,400.406,168.731,404.517,168.731
		 M382.384,168.526c3.267,0,6.01-0.844,7.659-1.691v-6.895c-1.571,0.848-3.386,1.573-6.246,1.573c-2.864,0-7.015-2.177-7.015-7.133
		c0-4.96,3.789-7.298,7.456-7.298c2.503,0,4.233,0.562,5.766,1.329V141.6c-1.61-0.726-3.627-1.291-6.854-1.291
		c-8.101,0-14.996,5.321-14.996,14.072C368.154,163.123,374.323,168.526,382.384,168.526 M353.804,168.084h7.903v-27.412h-7.903
		V168.084z M335.787,168.731c7.497,0,11.648-4.719,11.648-9.272c0-4.476-2.296-7.099-6.771-8.186
		c-1.814-0.441-2.82-0.605-4.191-0.887c-1.855-0.402-2.661-0.926-2.661-1.975c0-1.209,1.369-1.974,4.434-1.974
		c3.346,0,6.126,1.047,7.496,1.812v-6.811c-1.772-0.768-4.675-1.411-7.897-1.411c-6.815,0-11.855,3.587-11.855,9.148
		c0,4.234,2.383,6.895,6.09,7.823c2.053,0.522,3.143,0.763,4.916,1.21c1.49,0.361,2.501,0.843,2.501,1.933
		c0,1.371-1.452,2.138-4.113,2.138c-3.628,0-7.296-1.572-9.07-2.821v7.173C328.531,167.88,331.673,168.731,335.787,168.731
		 M306.316,168.084h7.903v-10.037l9.472-17.375h-8.747l-4.477,9.796h-0.158l-4.315-9.796h-8.949l9.271,17.375V168.084z
		 M269.391,140.672v27.412h7.903v-10.725h8.1v10.725h7.902v-27.412h-7.902v10.483h-8.1v-10.483H269.391z M249.117,153.33v-6.771
		h3.104c1.731,0,3.304,1.45,3.304,3.386c0,1.974-1.573,3.386-3.304,3.386H249.117z M241.214,168.084h7.902v-8.867h4.031
		c6.41,0,10.399-4.072,10.399-9.112c0-5.039-3.99-9.433-10.399-9.433h-11.933V168.084z"/>
	<path fill="#FFFFFF" d="M651.663,127.037h17.701v-6.49h-9.798V99.623h-7.903V127.037z M630.54,115.746l2.704-10.118h0.365
		l2.696,10.118H630.54z M639.331,127.037h8.102l-8.225-27.415H627.64l-8.184,27.415h8.104l1.49-5.687h8.747L639.331,127.037z
		 M604.623,127.037h7.9v-21.003h6.812v-6.411h-21.569v6.411h6.856V127.037z M566.648,127.037h7.898v-16.449h0.125l8.303,16.449
		h9.634V99.623h-7.901v16.367h-0.121l-8.224-16.367h-9.714V127.037z M540.527,127.037h18.906v-6.252h-11.005v-4.433h10.644v-6.085
		h-10.644v-4.396h11.005v-6.249h-18.906V127.037z M502.554,127.037h7.537v-16.732h0.122l7.094,11.651h0.568l6.77-11.689h0.123v16.77
		h7.697V99.623h-9.151l-5.644,9.717h-0.123l-5.641-9.717h-9.353V127.037z M486.591,127.037h7.901V99.623h-7.901V127.037z
		 M465.185,112.28v-6.813h3.186c2.139,0,3.386,1.654,3.386,3.388c0,1.732-1.247,3.425-3.386,3.425H465.185z M457.283,127.037h7.901
		v-9.636h2.016l4.758,9.636h8.907l-5.039-8.468c-0.522-0.887-1.168-1.692-1.529-1.936l0.041-0.158
		c2.415-1.093,5.843-3.146,5.843-7.823c0-4.92-3.91-9.03-10.318-9.03h-12.579V127.037z M431.166,127.037h18.901v-6.252h-11.004
		v-4.433h10.643v-6.085h-10.643v-4.396h11.004v-6.249h-18.901V127.037z M410.886,112.28v-6.771h3.105
		c1.734,0,3.305,1.451,3.305,3.387c0,1.974-1.57,3.384-3.305,3.384H410.886z M402.984,127.037h7.901v-8.871h4.028
		c6.413,0,10.402-4.07,10.402-9.111c0-5.039-3.989-9.432-10.402-9.432h-11.93V127.037z M369.284,127.037h9.23l4.918-8.792h0.163
		l4.592,8.792h9.193l-7.82-13.587l8.104-13.828h-9.393l-4.516,9.273h-0.161l-4.355-9.273h-9.354l7.741,13.787L369.284,127.037z
		 M345.905,127.037h18.908v-6.252h-11.01v-4.433h10.642v-6.085h-10.642v-4.396h11.01v-6.249h-18.908V127.037z M312.323,120.223
		v-13.787h1.653c3.788,0,6.69,2.46,6.69,6.894c0,4.434-2.902,6.893-6.69,6.893H312.323z M304.421,127.037h10.844
		c7.862,0,14.07-5.444,14.07-13.708c0-8.264-6.208-13.707-14.07-13.707h-10.844V127.037z M270.4,127.037h7.903v-16.449h0.119
		l8.306,16.449h9.634V99.623h-7.898v16.367h-0.123l-8.222-16.367H270.4V127.037z M249.276,115.746l2.704-10.118h0.359l2.701,10.118
		H249.276z M258.065,127.037h8.103l-8.223-27.415h-11.571l-8.183,27.415h8.104l1.492-5.687h8.747L258.065,127.037z"/>
	<path fill="#FFFFFF" d="M521.704,85.985H539.4v-6.492h-9.798V58.574h-7.898V85.985z M500.58,74.698l2.699-10.119h0.362l2.7,10.119
		H500.58z M509.365,85.985h8.102l-8.222-27.411h-11.569l-8.182,27.411h8.101l1.489-5.683h8.749L509.365,85.985z M478.407,86.43
		c3.266,0,6.005-0.848,7.66-1.694v-6.893c-1.572,0.847-3.388,1.571-6.248,1.571c-2.863,0-7.015-2.178-7.015-7.133
		c0-4.958,3.79-7.296,7.458-7.296c2.498,0,4.232,0.561,5.762,1.328v-6.812c-1.612-0.726-3.627-1.291-6.85-1.291
		c-8.108,0-14.999,5.322-14.999,14.071C464.176,81.028,470.346,86.43,478.407,86.43 M449.824,85.985h7.903V58.574h-7.903V85.985z
		 M415.802,85.985h7.903V69.539h0.12l8.305,16.446h9.635V58.574h-7.902v16.367h-0.121l-8.222-16.367h-9.718V85.985z M383.834,58.574
		v27.411h7.903V75.263h8.104v10.722h7.899V58.574h-7.899v10.481h-8.104V58.574H383.834z M370.213,86.43
		c3.264,0,6.005-0.848,7.659-1.694v-6.893c-1.574,0.847-3.386,1.571-6.249,1.571c-2.861,0-7.015-2.178-7.015-7.133
		c0-4.958,3.79-7.296,7.457-7.296c2.501,0,4.232,0.561,5.766,1.328v-6.812c-1.613-0.726-3.63-1.291-6.854-1.291
		c-8.104,0-14.993,5.322-14.993,14.071C355.984,81.028,362.148,86.43,370.213,86.43 M331.474,85.985h18.905v-6.249h-11.005v-4.434
		h10.642v-6.086h-10.642v-4.393h11.005v-6.249h-18.905V85.985z M311.601,85.985h7.9v-21h6.811v-6.411h-21.565v6.411h6.854V85.985z
		 M273.463,58.574v27.411h7.903V75.383h10.722v-6.086h-10.722v-4.473h10.843v-6.249H273.463z M253.349,79.617
		c-3.509,0-5.282-2.822-5.282-7.336c0-4.517,1.772-7.337,5.282-7.337c3.547,0,5.198,2.82,5.198,7.337
		C258.547,76.795,256.896,79.617,253.349,79.617 M253.349,86.632c8.183,0,13.665-5.2,13.665-14.351
		c0-9.152-5.481-14.353-13.665-14.353c-8.145,0-13.747,5.201-13.747,14.353C239.603,81.432,245.205,86.632,253.349,86.632"/>
	<path fill="#FFFFFF" d="M435.636,44.938h18.908v-6.249h-11.006v-4.434h10.642v-6.087h-10.642v-4.395h11.006v-6.247h-18.908V44.938z
		 M415.763,44.938h7.901V23.935h6.814v-6.409H408.91v6.409h6.853V44.938z M392.14,45.581c6.452,0,11.812-3.104,11.812-10.763V17.525
		h-7.9v16.568c0,3.105-1.692,4.473-3.912,4.473c-2.216,0-3.907-1.368-3.907-4.473V17.525h-7.902v17.292
		C380.33,42.477,385.691,45.581,392.14,45.581 M360.658,44.938h7.901V23.935h6.81v-6.409h-21.565v6.409h6.854V44.938z
		 M340.743,44.938h7.901V17.523h-7.901V44.938z M320.869,44.938h7.902V23.935h6.811v-6.409h-21.566v6.409h6.854V44.938z
		 M299.706,45.581c7.497,0,11.65-4.715,11.65-9.271c0-4.474-2.297-7.094-6.772-8.184c-1.812-0.442-2.822-0.605-4.193-0.886
		c-1.853-0.403-2.66-0.928-2.66-1.976c0-1.21,1.37-1.975,4.434-1.975c3.349,0,6.126,1.048,7.5,1.814V18.29
		c-1.775-0.765-4.678-1.408-7.902-1.408c-6.813,0-11.854,3.585-11.854,9.147c0,4.234,2.382,6.895,6.092,7.822
		c2.055,0.524,3.145,0.766,4.919,1.208c1.488,0.363,2.496,0.849,2.496,1.936c0,1.369-1.451,2.136-4.11,2.136
		c-3.63,0-7.297-1.573-9.072-2.822v7.176C292.45,44.735,295.592,45.581,299.706,45.581 M257.176,44.938h7.902V28.49h0.123
		l8.304,16.447h9.631V17.525h-7.901V33.89h-0.119l-8.226-16.365h-9.715V44.938z M241.214,44.938h7.902V17.523h-7.902V44.938z"/>
</g>
</svg>
