<svg xmlns="http://www.w3.org/2000/svg" fill="none" viewBox="101.87 0 79.75 104.28"><path fill="#22262A" d="M168.167 46.952c-2.096 6.08-8.371 16.845-14.835 16.963-4.288.082-5.667-2.542-10.568-2.542-4.899 0-6.432 2.462-10.485 2.622-6.859.264-17.446-15.539-17.446-29.32 0-12.659 8.822-18.934 16.528-19.048 4.134-.075 8.038 2.786 10.558 2.786 2.53 0 7.272-3.44 12.256-2.936 2.085.088 7.944.84 11.704 6.339-9.976 6.512-8.422 20.13 2.288 25.136ZM154.241 0c-7.536.304-13.685 8.21-12.826 14.75 6.965.54 13.648-7.267 12.826-14.75ZM101.893 104V90.91h2.949v2.224h.154c.272-.75.724-1.336 1.355-1.756.63-.426 1.383-.64 2.258-.64.887 0 1.634.216 2.242.648a3.39 3.39 0 0 1 1.295 1.748h.137a3.575 3.575 0 0 1 1.465-1.74c.694-.437 1.515-.655 2.464-.655 1.204 0 2.187.38 2.948 1.142.762.761 1.142 1.872 1.142 3.332V104h-3.093v-8.31c0-.812-.216-1.406-.648-1.78-.432-.382-.96-.572-1.585-.572-.745 0-1.327.233-1.747.699-.415.46-.623 1.06-.623 1.798V104h-3.025v-8.438c0-.676-.205-1.215-.614-1.619-.403-.403-.932-.605-1.585-.605-.443 0-.847.114-1.21.341a2.378 2.378 0 0 0-.87.946c-.215.403-.323.875-.323 1.415V104h-3.086Zm25.066.264c-.829 0-1.576-.148-2.241-.443a3.65 3.65 0 0 1-1.568-1.33c-.381-.585-.571-1.306-.571-2.164 0-.739.136-1.35.409-1.833.273-.483.645-.869 1.116-1.159a5.638 5.638 0 0 1 1.594-.656 12.967 12.967 0 0 1 1.85-.332c.767-.08 1.389-.151 1.866-.213.477-.069.824-.17 1.04-.307.221-.142.332-.361.332-.656v-.052c0-.642-.19-1.139-.571-1.491-.381-.352-.929-.529-1.645-.529-.755 0-1.355.165-1.798.495-.438.33-.733.719-.886 1.167l-2.881-.409c.227-.795.602-1.46 1.125-1.994a4.895 4.895 0 0 1 1.918-1.21c.755-.273 1.59-.41 2.505-.41.631 0 1.259.075 1.884.222a5.3 5.3 0 0 1 1.713.733c.517.335.932.793 1.244 1.372.318.58.477 1.304.477 2.174V104h-2.966v-1.798h-.102a3.776 3.776 0 0 1-.792 1.022c-.336.313-.759.566-1.27.759-.506.187-1.1.281-1.782.281Zm.802-2.267c.619 0 1.156-.122 1.61-.366.455-.25.804-.58 1.049-.989.25-.409.375-.855.375-1.338v-1.543c-.097.08-.262.154-.495.222a6.997 6.997 0 0 1-.767.179c-.284.051-.565.096-.843.136l-.725.103c-.46.062-.872.164-1.236.306-.363.142-.65.341-.86.597-.211.25-.316.574-.316.972 0 .568.208.997.622 1.286.415.29.944.435 1.586.435Zm14.683 2.259c-1.307 0-2.429-.287-3.367-.861a5.759 5.759 0 0 1-2.156-2.378c-.5-1.017-.75-2.188-.75-3.511 0-1.33.256-2.503.767-3.52.512-1.023 1.233-1.818 2.165-2.387.937-.573 2.045-.86 3.324-.86 1.062 0 2.003.196 2.821.588.824.386 1.48.934 1.969 1.645.488.704.767 1.528.835 2.471h-2.949a2.816 2.816 0 0 0-.852-1.576c-.443-.427-1.037-.64-1.782-.64-.63 0-1.184.17-1.661.512-.478.335-.85.818-1.117 1.448-.261.631-.392 1.387-.392 2.267 0 .893.131 1.66.392 2.302.261.636.628 1.128 1.099 1.474.478.341 1.037.511 1.679.511.455 0 .861-.085 1.219-.255.364-.176.668-.429.912-.759.244-.329.412-.73.503-1.201h2.949c-.074.926-.347 1.747-.818 2.463-.472.71-1.114 1.267-1.926 1.67-.813.398-1.768.597-2.864.597Zm23.634-8.983c0 1.88-.352 3.491-1.057 4.832-.699 1.335-1.653 2.358-2.863 3.068-1.205.711-2.571 1.066-4.1 1.066-1.528 0-2.897-.355-4.108-1.066-1.204-.716-2.159-1.741-2.863-3.076-.699-1.341-1.049-2.95-1.049-4.824 0-1.881.35-3.489 1.049-4.824.704-1.341 1.659-2.367 2.863-3.077 1.211-.71 2.58-1.065 4.108-1.065 1.529 0 2.895.355 4.1 1.065 1.21.71 2.164 1.736 2.863 3.077.705 1.335 1.057 2.943 1.057 4.824Zm-3.179 0c0-1.324-.207-2.44-.622-3.35-.409-.915-.977-1.605-1.705-2.07-.727-.472-1.565-.708-2.514-.708-.949 0-1.787.236-2.514.707-.727.466-1.298 1.156-1.713 2.071-.409.91-.614 2.026-.614 3.35 0 1.324.205 2.443.614 3.358.415.909.986 1.599 1.713 2.071.727.466 1.565.699 2.514.699.949 0 1.787-.233 2.514-.699.728-.472 1.296-1.162 1.705-2.071.415-.915.622-2.034.622-3.358Zm15.414-3.93c-.079-.744-.414-1.323-1.005-1.738-.586-.415-1.347-.622-2.284-.622-.66 0-1.225.1-1.696.298-.472.2-.833.469-1.083.81-.25.34-.378.73-.383 1.168 0 .363.082.678.247.945.17.268.4.495.69.682.29.182.611.336.963.46.352.126.708.23 1.066.316l1.636.409c.659.153 1.292.36 1.9.622.614.261 1.162.591 1.645.989.489.397.875.878 1.159 1.44.285.563.427 1.222.427 1.977 0 1.023-.262 1.924-.785 2.702-.522.773-1.278 1.378-2.267 1.815-.983.432-2.173.648-3.571.648-1.358 0-2.537-.21-3.537-.63-.994-.421-1.772-1.035-2.335-1.841-.557-.807-.858-1.79-.903-2.95h3.111c.045.609.233 1.114.562 1.518.33.403.759.704 1.287.903a5.096 5.096 0 0 0 1.79.298c.687 0 1.29-.102 1.807-.306.522-.211.931-.5 1.227-.87.295-.375.446-.812.452-1.312-.006-.455-.14-.83-.401-1.125-.261-.301-.628-.551-1.099-.75a10.602 10.602 0 0 0-1.637-.546l-1.986-.511c-1.437-.37-2.573-.929-3.409-1.679-.829-.756-1.244-1.758-1.244-3.008 0-1.029.278-1.93.835-2.702.563-.773 1.327-1.372 2.293-1.799.966-.431 2.06-.647 3.281-.647 1.239 0 2.324.216 3.256.647.937.427 1.673 1.02 2.207 1.782.534.755.81 1.625.827 2.608h-3.043Z"></path></svg>
