<?xml version="1.0" encoding="UTF-8"?>
<svg xmlns="http://www.w3.org/2000/svg" xmlns:xlink="http://www.w3.org/1999/xlink" width="333.75pt" height="321.97pt" viewBox="0 0 333.75 321.97" version="1.1">
<defs>
<clipPath id="clip1">
  <path d="M 219 240 L 315 240 L 315 321.96875 L 219 321.96875 Z M 219 240 "/>
</clipPath>
<clipPath id="clip2">
  <path d="M 20 240 L 115 240 L 115 321.96875 L 20 321.96875 Z M 20 240 "/>
</clipPath>
<clipPath id="clip3">
  <path d="M 231 146 L 333.75 146 L 333.75 238 L 231 238 Z M 231 146 "/>
</clipPath>
</defs>
<g id="surface1">
<path style=" stroke:none;fill-rule:nonzero;fill:rgb(0.799561%,0.799561%,0.799561%);fill-opacity:1;" d="M 164.722656 160.929688 C 158.402344 165.738281 156.996094 167.351563 153.503906 172.671875 C 152.238281 174.726563 149.878906 179.523438 149.230469 182.742188 C 148.585938 185.960938 148.101563 190.628906 148.105469 193.101563 C 148.113281 201.480469 150.78125 206.738281 153.695313 206.554688 C 156.296875 206.257813 159.609375 203.542969 164.628906 197.378906 L 164.722656 160.929688 "/>
<path style=" stroke:none;fill-rule:nonzero;fill:rgb(1.199341%,1.599121%,1.599121%);fill-opacity:1;" d="M 153.542969 207.058594 C 152.671875 207.058594 151.851563 206.65625 151.144531 205.976563 C 150.4375 205.292969 149.820313 204.328125 149.296875 203.117188 C 148.261719 200.695313 147.609375 197.273438 147.605469 193.101563 L 147.605469 193.105469 L 147.605469 193.085938 C 147.605469 190.554688 148.089844 185.898438 148.742188 182.644531 C 149.417969 179.304688 151.78125 174.519531 153.074219 172.410156 L 153.078125 172.402344 L 153.085938 172.394531 C 154.832031 169.734375 156.078125 167.96875 157.6875 166.265625 C 159.300781 164.5625 161.253906 162.941406 164.421875 160.53125 L 165.027344 161.328125 C 164.921875 161.40625 164.820313 161.484375 164.722656 161.558594 L 164.722656 160.929688 C 158.402344 165.738281 156.996094 167.351563 153.503906 172.671875 C 152.238281 174.726563 149.878906 179.523438 149.230469 182.742188 C 148.585938 185.960938 148.101563 190.628906 148.105469 193.101563 C 148.113281 201.339844 150.691406 206.558594 153.546875 206.558594 C 153.59375 206.558594 153.644531 206.558594 153.695313 206.554688 C 156.296875 206.257813 159.609375 203.542969 164.628906 197.378906 L 165.015625 197.695313 C 162.492188 200.789063 160.394531 203.03125 158.574219 204.550781 C 156.753906 206.066406 155.203125 206.882813 153.75 207.050781 L 153.738281 207.054688 L 153.726563 207.054688 L 153.546875 207.058594 C 153.546875 207.058594 153.546875 207.058594 153.542969 207.058594 "/>
<path style=" stroke:none;fill-rule:nonzero;fill:rgb(0.799561%,0.799561%,0.799561%);fill-opacity:1;" d="M 153.546875 206.558594 C 150.691406 206.558594 148.113281 201.339844 148.105469 193.101563 C 148.101563 190.628906 148.585938 185.960938 149.230469 182.742188 C 149.878906 179.523438 152.238281 174.726563 153.503906 172.671875 C 156.996094 167.351563 158.402344 165.738281 164.722656 160.929688 L 164.722656 161.558594 C 161.746094 163.828125 159.910156 165.367188 158.414063 166.953125 C 156.871094 168.585938 155.664063 170.285156 153.921875 172.941406 C 152.6875 174.941406 150.335938 179.746094 149.722656 182.839844 C 149.085938 186.007813 148.605469 190.667969 148.605469 193.085938 L 148.605469 193.101563 C 148.609375 196.152344 148.96875 198.773438 149.558594 200.84375 C 150.144531 202.914063 150.972656 204.425781 151.839844 205.253906 C 152.421875 205.8125 152.988281 206.058594 153.546875 206.058594 L 153.652344 206.058594 C 154.800781 205.921875 156.203125 205.230469 157.933594 203.785156 C 159.675781 202.332031 161.742188 200.132813 164.238281 197.0625 L 164.628906 197.378906 C 159.609375 203.542969 156.296875 206.257813 153.695313 206.554688 C 153.644531 206.558594 153.59375 206.558594 153.546875 206.558594 "/>
<path style=" stroke:none;fill-rule:nonzero;fill:rgb(0.799561%,0.799561%,0.799561%);fill-opacity:1;" d="M 169.277344 161.066406 C 175.597656 165.871094 177.003906 167.488281 180.496094 172.808594 C 181.761719 174.859375 184.121094 179.65625 184.769531 182.878906 C 185.414063 186.09375 185.894531 190.765625 185.894531 193.238281 C 185.886719 201.617188 183.21875 206.875 180.304688 206.691406 C 177.703125 206.394531 174.390625 203.679688 169.371094 197.515625 L 169.277344 161.066406 "/>
<path style=" stroke:none;fill-rule:nonzero;fill:rgb(1.199341%,1.599121%,1.599121%);fill-opacity:1;" d="M 180.453125 207.195313 L 180.273438 207.191406 L 180.25 207.1875 C 178.796875 207.019531 177.242188 206.203125 175.425781 204.6875 C 173.605469 203.164063 171.503906 200.925781 168.984375 197.828125 L 169.371094 197.515625 C 174.390625 203.679688 177.703125 206.394531 180.304688 206.691406 C 180.355469 206.695313 180.402344 206.695313 180.453125 206.695313 C 183.308594 206.695313 185.886719 201.476563 185.894531 193.238281 C 185.894531 190.765625 185.414063 186.09375 184.769531 182.878906 C 184.121094 179.65625 181.761719 174.859375 180.496094 172.808594 C 177.003906 167.488281 175.597656 165.871094 169.277344 161.066406 L 169.578125 160.667969 C 172.746094 163.074219 174.699219 164.699219 176.308594 166.402344 C 177.921875 168.105469 179.164063 169.867188 180.914063 172.53125 L 180.921875 172.546875 C 182.214844 174.65625 184.582031 179.4375 185.257813 182.777344 C 185.910156 186.035156 186.390625 190.6875 186.394531 193.222656 L 186.394531 193.238281 C 186.390625 196.367188 186.023438 199.074219 185.402344 201.253906 C 184.777344 203.433594 183.914063 205.089844 182.851563 206.113281 C 182.148438 206.792969 181.324219 207.195313 180.453125 207.195313 M 169.277344 161.695313 C 169.175781 161.617188 169.074219 161.542969 168.972656 161.464844 L 169.277344 161.066406 L 169.277344 161.695313 M 168.972656 161.464844 L 168.972656 161.464844 "/>
<path style=" stroke:none;fill-rule:nonzero;fill:rgb(0.799561%,0.799561%,0.799561%);fill-opacity:1;" d="M 180.453125 206.695313 C 180.402344 206.695313 180.355469 206.695313 180.304688 206.691406 C 177.703125 206.394531 174.390625 203.679688 169.371094 197.515625 L 169.757813 197.199219 C 172.257813 200.265625 174.324219 202.46875 176.066406 203.917969 C 177.796875 205.367188 179.195313 206.058594 180.34375 206.195313 L 180.453125 206.195313 C 181.007813 206.195313 181.578125 205.949219 182.160156 205.390625 C 182.738281 204.839844 183.300781 203.984375 183.78125 202.859375 C 184.746094 200.613281 185.390625 197.304688 185.394531 193.238281 L 185.394531 193.222656 C 185.394531 190.800781 184.914063 186.140625 184.277344 182.976563 C 183.664063 179.882813 181.3125 175.078125 180.074219 173.078125 C 178.332031 170.425781 177.128906 168.722656 175.582031 167.089844 C 174.085938 165.503906 172.253906 163.964844 169.277344 161.695313 L 169.277344 161.066406 C 175.597656 165.871094 177.003906 167.488281 180.496094 172.808594 C 181.761719 174.859375 184.121094 179.65625 184.769531 182.878906 C 185.414063 186.09375 185.894531 190.765625 185.894531 193.238281 C 185.886719 201.476563 183.308594 206.695313 180.453125 206.695313 "/>
<path style=" stroke:none;fill-rule:nonzero;fill:rgb(0.799561%,0.799561%,0.799561%);fill-opacity:1;" d="M 110.988281 124.320313 C 119.761719 122.78125 128.265625 121.785156 137.042969 120.792969 C 148.53125 117.898438 154.324219 131.015625 151.15625 140.878906 C 147.175781 149.652344 141.566406 157.34375 135.144531 164.761719 C 130.167969 170.371094 124.238281 171.277344 118.585938 169.375 C 114.023438 168.109375 109.808594 165.304688 105.285156 158.789063 C 103.296875 153.179688 101.578125 150.285156 99.042969 143.320313 C 97.054688 136.894531 100.148438 127.28125 110.988281 124.320313 "/>
<path style=" stroke:none;fill-rule:nonzero;fill:rgb(1.199341%,1.599121%,1.599121%);fill-opacity:1;" d="M 123.851563 170.777344 C 123.84375 170.777344 123.839844 170.777344 123.832031 170.777344 C 122.023438 170.777344 120.214844 170.449219 118.441406 169.855469 C 113.765625 168.5625 109.429688 165.648438 104.875 159.074219 L 104.839844 159.019531 L 104.816406 158.957031 C 102.84375 153.390625 101.121094 150.488281 98.574219 143.488281 L 98.570313 143.480469 L 98.566406 143.46875 C 98.179688 142.21875 97.980469 140.859375 97.980469 139.453125 C 97.980469 136.394531 98.933594 133.109375 101.023438 130.273438 C 103.113281 127.441406 106.347656 125.066406 110.855469 123.839844 L 110.878906 123.832031 L 110.902344 123.828125 C 119.683594 122.289063 128.1875 121.292969 136.953125 120.300781 C 138.082031 120.019531 139.160156 119.882813 140.1875 119.882813 L 140.191406 119.882813 C 140.195313 119.882813 140.199219 119.882813 140.203125 119.882813 C 144.105469 119.882813 147.222656 121.832031 149.3125 124.710938 C 151.40625 127.597656 152.515625 131.410156 152.515625 135.257813 C 152.515625 137.210938 152.230469 139.171875 151.632813 141.03125 L 151.625 141.058594 L 151.613281 141.082031 C 147.601563 149.921875 141.960938 157.648438 135.519531 165.089844 L 135.519531 165.09375 L 135.515625 165.09375 C 132 169.066406 127.941406 170.777344 123.851563 170.777344 M 137.042969 120.792969 C 128.265625 121.785156 119.761719 122.78125 110.988281 124.320313 C 100.148438 127.28125 97.054688 136.894531 99.042969 143.320313 C 101.578125 150.285156 103.296875 153.179688 105.285156 158.789063 C 109.808594 165.304688 114.023438 168.109375 118.585938 169.375 C 120.320313 169.960938 122.082031 170.277344 123.832031 170.277344 C 127.785156 170.277344 131.695313 168.648438 135.144531 164.761719 C 141.566406 157.34375 147.175781 149.652344 151.15625 140.878906 C 154.019531 131.960938 149.5625 120.382813 140.191406 120.382813 C 139.195313 120.382813 138.144531 120.515625 137.042969 120.792969 "/>
<path style=" stroke:none;fill-rule:nonzero;fill:rgb(0.799561%,0.799561%,0.799561%);fill-opacity:1;" d="M 123.832031 170.277344 C 122.082031 170.277344 120.320313 169.960938 118.585938 169.375 C 114.023438 168.109375 109.808594 165.304688 105.285156 158.789063 C 103.296875 153.179688 101.578125 150.285156 99.042969 143.320313 C 97.054688 136.894531 100.148438 127.28125 110.988281 124.320313 C 119.761719 122.78125 128.265625 121.785156 137.042969 120.792969 C 138.144531 120.515625 139.195313 120.382813 140.191406 120.382813 C 149.5625 120.382813 154.019531 131.960938 151.15625 140.878906 C 147.175781 149.652344 141.566406 157.34375 135.144531 164.761719 C 131.695313 168.648438 127.785156 170.277344 123.832031 170.277344 M 105.734375 158.558594 C 110.210938 164.972656 114.285156 167.65625 118.71875 168.894531 L 118.734375 168.898438 L 118.746094 168.902344 C 120.4375 169.472656 122.144531 169.777344 123.832031 169.777344 C 127.648438 169.773438 131.394531 168.226563 134.769531 164.429688 C 141.167969 157.039063 146.738281 149.398438 150.6875 140.695313 C 151.246094 138.953125 151.515625 137.101563 151.515625 135.257813 C 151.515625 131.601563 150.449219 127.976563 148.503906 125.300781 C 146.546875 122.621094 143.757813 120.890625 140.191406 120.882813 C 139.238281 120.882813 138.230469 121.007813 137.164063 121.277344 L 137.132813 121.285156 L 137.097656 121.289063 C 128.332031 122.28125 119.847656 123.277344 111.097656 124.808594 C 106.800781 125.988281 103.785156 128.222656 101.828125 130.867188 C 99.871094 133.519531 98.976563 136.601563 98.980469 139.453125 C 98.980469 140.757813 99.164063 142.015625 99.519531 143.160156 C 102.027344 150.058594 103.738281 152.953125 105.734375 158.558594 M 111.074219 124.8125 L 111.074219 124.8125 "/>
<path style=" stroke:none;fill-rule:nonzero;fill:rgb(0.799561%,0.799561%,0.799561%);fill-opacity:1;" d="M 223.183594 124.320313 C 214.410156 122.78125 205.902344 121.785156 197.128906 120.792969 C 185.636719 117.898438 179.847656 131.015625 183.015625 140.878906 C 186.996094 149.652344 192.605469 157.34375 199.027344 164.761719 C 204.003906 170.371094 209.933594 171.277344 215.585938 169.375 C 220.148438 168.109375 224.359375 165.304688 228.882813 158.789063 C 230.875 153.179688 232.59375 150.285156 235.125 143.320313 C 237.117188 136.894531 234.023438 127.28125 223.183594 124.320313 "/>
<path style=" stroke:none;fill-rule:nonzero;fill:rgb(1.199341%,1.599121%,1.599121%);fill-opacity:1;" d="M 210.320313 170.777344 C 206.230469 170.777344 202.171875 169.066406 198.652344 165.09375 L 198.652344 165.089844 L 198.648438 165.089844 C 192.210938 157.648438 186.566406 149.921875 182.558594 141.082031 L 182.546875 141.058594 L 182.539063 141.03125 C 181.941406 139.171875 181.65625 137.210938 181.65625 135.257813 C 181.65625 131.410156 182.765625 127.597656 184.859375 124.710938 C 186.945313 121.832031 190.066406 119.882813 193.96875 119.882813 C 193.972656 119.882813 193.976563 119.882813 193.980469 119.882813 C 195.011719 119.882813 196.089844 120.019531 197.21875 120.300781 C 205.980469 121.292969 214.488281 122.289063 223.269531 123.828125 L 223.183594 124.320313 C 214.410156 122.78125 205.902344 121.785156 197.128906 120.792969 C 196.027344 120.515625 194.976563 120.382813 193.980469 120.382813 C 184.609375 120.382813 180.152344 131.960938 183.015625 140.878906 C 186.996094 149.652344 192.605469 157.34375 199.027344 164.761719 C 202.476563 168.648438 206.382813 170.277344 210.339844 170.277344 C 212.089844 170.277344 213.851563 169.960938 215.585938 169.375 C 220.148438 168.109375 224.359375 165.304688 228.882813 158.789063 C 230.875 153.179688 232.59375 150.285156 235.125 143.320313 C 237.117188 136.894531 234.023438 127.28125 223.183594 124.320313 L 223.269531 123.828125 L 223.292969 123.832031 L 223.316406 123.839844 C 227.824219 125.066406 231.054688 127.441406 233.144531 130.273438 C 235.238281 133.109375 236.191406 136.394531 236.191406 139.453125 C 236.191406 140.859375 235.992188 142.21875 235.605469 143.46875 L 235.601563 143.480469 L 235.597656 143.488281 C 233.050781 150.488281 231.328125 153.390625 229.355469 158.957031 L 229.332031 159.019531 L 229.296875 159.074219 C 224.738281 165.648438 220.40625 168.5625 215.730469 169.855469 C 213.957031 170.449219 212.144531 170.777344 210.339844 170.777344 C 210.332031 170.777344 210.328125 170.777344 210.320313 170.777344 "/>
<path style=" stroke:none;fill-rule:nonzero;fill:rgb(0.799561%,0.799561%,0.799561%);fill-opacity:1;" d="M 210.339844 170.277344 C 206.382813 170.277344 202.476563 168.648438 199.027344 164.761719 C 192.605469 157.34375 186.996094 149.652344 183.015625 140.878906 C 180.152344 131.960938 184.609375 120.382813 193.980469 120.382813 C 194.976563 120.382813 196.027344 120.515625 197.128906 120.792969 C 205.902344 121.785156 214.410156 122.78125 223.183594 124.320313 L 223.054688 124.804688 L 223.183594 124.320313 C 234.023438 127.28125 237.117188 136.894531 235.125 143.320313 C 232.59375 150.285156 230.875 153.179688 228.882813 158.789063 C 224.359375 165.304688 220.148438 168.109375 215.585938 169.375 C 213.851563 169.960938 212.089844 170.277344 210.339844 170.277344 M 199.40625 164.433594 C 202.78125 168.226563 206.523438 169.773438 210.339844 169.777344 C 212.027344 169.777344 213.734375 169.472656 215.425781 168.902344 L 215.4375 168.898438 L 215.453125 168.894531 C 219.886719 167.65625 223.960938 164.972656 228.4375 158.558594 C 230.433594 152.953125 232.144531 150.058594 234.652344 143.160156 C 235.003906 142.015625 235.191406 140.757813 235.191406 139.453125 C 235.191406 136.601563 234.300781 133.519531 232.34375 130.867188 C 230.386719 128.222656 227.371094 125.988281 223.074219 124.808594 C 214.324219 123.277344 205.839844 122.28125 197.070313 121.289063 L 197.039063 121.285156 L 197.007813 121.277344 C 195.941406 121.007813 194.933594 120.882813 193.980469 120.882813 C 190.414063 120.890625 187.625 122.621094 185.671875 125.300781 C 183.722656 127.976563 182.65625 131.601563 182.65625 135.257813 C 182.65625 137.101563 182.925781 138.953125 183.480469 140.695313 C 187.433594 149.402344 193.007813 157.042969 199.40625 164.433594 "/>
<path style=" stroke:none;fill-rule:nonzero;fill:rgb(1.199341%,1.599121%,1.599121%);fill-opacity:1;" d="M 119.785156 244.636719 C 119.082031 238.960938 118.527344 234.949219 117.875 231.40625 C 117.226563 227.871094 116.480469 224.777344 115.363281 220.847656 C 114.917969 219.40625 114.519531 218.121094 114.144531 216.9375 C 113.515625 214.117188 112.714844 211.367188 111.8125 208.679688 C 111.164063 206.738281 110.464844 204.828125 109.734375 202.941406 C 110.972656 203.429688 112.027344 203.988281 113.121094 204.660156 C 114.492188 205.507813 115.9375 206.597656 117.683594 207.914063 C 117.761719 208.132813 117.84375 208.347656 117.921875 208.566406 C 119.03125 211.640625 120.003906 214.691406 121.347656 219.039063 L 121.355469 219.070313 L 121.363281 219.105469 C 122.523438 223.171875 123.335938 226.523438 124.023438 230.277344 C 124.644531 233.664063 125.167969 237.355469 125.785156 242.242188 C 125.433594 241.851563 125.089844 241.453125 124.746094 241.042969 L 120.523438 244.546875 L 119.785156 244.636719 "/>
<path style=" stroke:none;fill-rule:nonzero;fill:rgb(1.199341%,1.599121%,1.599121%);fill-opacity:1;" d="M 213.917969 244.15625 L 212.910156 244.03125 L 208.238281 241.59375 C 208.125 241.816406 207.996094 242.039063 207.855469 242.265625 C 208.5 237.128906 209.035156 233.296875 209.679688 229.796875 C 210.367188 226.046875 211.179688 222.691406 212.335938 218.625 L 212.347656 218.59375 L 212.355469 218.558594 C 213.566406 214.644531 214.472656 211.78125 215.453125 209.003906 C 215.574219 208.882813 215.691406 208.761719 215.816406 208.636719 C 217.769531 207.109375 219.800781 205.695313 221.8125 204.507813 C 222.59375 204.042969 223.371094 203.617188 224.136719 203.226563 C 223.445313 205.023438 222.785156 206.835938 222.164063 208.679688 C 222.011719 209.144531 221.859375 209.609375 221.710938 210.078125 C 221.691406 210.125 221.675781 210.167969 221.660156 210.214844 C 220.605469 213.128906 219.667969 216.058594 218.339844 220.367188 C 217.222656 224.296875 216.476563 227.390625 215.828125 230.925781 C 215.175781 234.46875 214.621094 238.480469 213.917969 244.15625 "/>
<path style=" stroke:none;fill-rule:nonzero;fill:rgb(1.199341%,1.599121%,1.599121%);fill-opacity:1;" d="M 163.289063 228.691406 C 162.125 228.691406 160.953125 228.679688 159.78125 228.660156 L 159.785156 227.335938 L 154.785156 227.3125 L 154.78125 228.507813 C 153.5 228.445313 152.222656 228.371094 150.949219 228.277344 L 150.964844 226.667969 L 145.964844 226.621094 L 145.953125 227.804688 C 144.867188 227.675781 143.789063 227.53125 142.726563 227.367188 C 142.210938 227.289063 141.695313 227.203125 141.1875 227.117188 L 141.195313 225.433594 L 136.195313 225.410156 L 136.191406 226.066406 C 134.871094 225.734375 133.589844 225.363281 132.351563 224.945313 L 132.371094 222.597656 L 127.375 222.546875 L 127.371094 222.878906 C 126.675781 222.527344 126.003906 222.152344 125.355469 221.753906 L 125.871094 220.910156 L 136.003906 221.121094 C 136.003906 221.027344 136.007813 220.933594 136.007813 220.84375 C 138.324219 221.496094 140.839844 222.023438 143.484375 222.425781 C 149.65625 223.375 156.527344 223.691406 163.257813 223.691406 C 163.269531 223.691406 163.277344 223.691406 163.289063 223.691406 C 164.757813 223.691406 166.21875 223.675781 167.664063 223.648438 L 167.695313 223.648438 C 175.917969 223.609375 183.496094 223.285156 190.074219 222.300781 C 193.15625 221.84375 196.011719 221.238281 198.609375 220.460938 C 198.613281 220.554688 198.613281 220.648438 198.617188 220.746094 L 208.53125 220.535156 L 209.039063 221.378906 C 208.257813 221.851563 207.449219 222.292969 206.617188 222.703125 L 206.605469 221.460938 L 201.605469 221.511719 L 201.636719 224.746094 C 200.351563 225.179688 199.023438 225.5625 197.652344 225.90625 L 197.648438 225.003906 L 192.648438 225.027344 L 192.660156 226.949219 C 192.050781 227.054688 191.4375 227.152344 190.816406 227.246094 C 189.8125 227.398438 188.789063 227.53125 187.753906 227.652344 L 187.742188 226.621094 L 182.742188 226.667969 L 182.757813 228.128906 C 181.585938 228.214844 180.398438 228.292969 179.195313 228.355469 L 179.191406 227.449219 L 174.191406 227.46875 L 174.199219 228.550781 C 172.71875 228.589844 171.214844 228.617188 169.691406 228.632813 L 169.691406 227.59375 L 164.691406 227.59375 L 164.691406 228.6875 C 164.226563 228.6875 163.757813 228.691406 163.289063 228.691406 "/>
<path style=" stroke:none;fill-rule:nonzero;fill:rgb(1.199341%,1.599121%,1.599121%);fill-opacity:1;" d="M 163.421875 245.949219 C 162.171875 245.949219 160.929688 245.925781 159.703125 245.878906 L 159.726563 240.878906 C 160.941406 240.925781 162.175781 240.949219 163.421875 240.949219 C 163.84375 240.949219 164.269531 240.949219 164.691406 240.941406 L 164.691406 245.941406 C 164.269531 245.949219 163.84375 245.949219 163.421875 245.949219 M 169.691406 245.8125 L 169.691406 240.808594 C 171.257813 240.757813 172.773438 240.695313 174.25 240.609375 L 174.273438 245.617188 C 172.777344 245.699219 171.253906 245.761719 169.691406 245.8125 M 154.707031 245.539063 C 153.386719 245.410156 152.085938 245.25 150.800781 245.054688 L 150.84375 240 C 152.117188 240.207031 153.410156 240.378906 154.726563 240.515625 L 154.707031 245.539063 M 179.273438 245.253906 L 179.25 240.230469 C 180.484375 240.109375 181.6875 239.96875 182.859375 239.804688 L 182.90625 244.84375 C 181.714844 245.003906 180.503906 245.136719 179.273438 245.253906 M 145.808594 244.101563 C 145.527344 244.039063 145.25 243.972656 144.972656 243.902344 C 143.664063 243.585938 142.378906 243.226563 141.113281 242.824219 L 141.136719 237.5625 C 142.671875 238.097656 144.242188 238.566406 145.855469 238.972656 L 145.808594 244.101563 M 187.898438 244.011719 L 187.851563 238.90625 C 189.527344 238.53125 191.140625 238.089844 192.710938 237.566406 L 192.734375 242.804688 C 191.15625 243.273438 189.550781 243.671875 187.914063 244.007813 C 187.910156 244.007813 187.902344 244.011719 187.898438 244.011719 M 197.726563 241.007813 L 197.699219 235.523438 C 199.066406 234.851563 200.40625 234.09375 201.722656 233.238281 L 201.78125 239.03125 C 200.453125 239.765625 199.101563 240.421875 197.726563 241.007813 M 136.121094 240.976563 C 134.792969 240.410156 133.488281 239.792969 132.207031 239.121094 L 132.265625 233.421875 C 133.53125 234.179688 134.824219 234.871094 136.148438 235.503906 L 136.121094 240.976563 "/>
<path style=" stroke:none;fill-rule:nonzero;fill:rgb(1.199341%,1.599121%,1.599121%);fill-opacity:1;" d="M 169.910156 262.714844 C 169.058594 262.714844 168.203125 262.699219 167.347656 262.667969 C 158.253906 262.421875 149.542969 261.714844 141.472656 259.21875 C 133.410156 256.734375 125.992188 252.359375 119.9375 245.03125 L 120.523438 244.546875 L 125.988281 243.867188 C 125.917969 243.3125 125.851563 242.769531 125.785156 242.242188 C 126.234375 242.746094 126.695313 243.230469 127.160156 243.699219 L 127.101563 249.417969 L 132.101563 249.46875 L 132.117188 247.875 C 133.394531 248.769531 134.714844 249.566406 136.078125 250.28125 L 136.058594 254.183594 L 141.058594 254.207031 L 141.066406 252.484375 C 141.808594 252.757813 142.558594 253.011719 143.324219 253.25 C 144.109375 253.492188 144.910156 253.71875 145.71875 253.929688 L 145.695313 256.75 L 150.695313 256.796875 L 150.710938 254.992188 C 152.003906 255.214844 153.320313 255.402344 154.660156 255.566406 L 154.652344 257.847656 L 159.652344 257.867188 L 159.660156 256.046875 C 161.308594 256.167969 162.984375 256.257813 164.691406 256.328125 L 164.691406 258.128906 L 169.691406 258.128906 L 169.691406 256.464844 C 169.765625 256.464844 169.839844 256.464844 169.910156 256.464844 C 169.914063 256.464844 169.921875 256.464844 169.925781 256.464844 C 171.394531 256.464844 172.863281 256.414063 174.320313 256.316406 L 174.328125 258.003906 L 179.328125 257.980469 L 179.320313 255.804688 C 180.5625 255.632813 181.789063 255.425781 183 255.1875 L 183.011719 256.65625 L 188.011719 256.613281 L 187.988281 254.015625 C 188.285156 253.933594 188.574219 253.851563 188.867188 253.765625 C 190.214844 253.375 191.519531 252.941406 192.777344 252.476563 L 192.785156 253.796875 L 197.785156 253.773438 L 197.769531 250.335938 C 199.261719 249.59375 200.636719 248.804688 201.871094 247.984375 L 201.878906 248.652344 L 206.878906 248.605469 L 206.828125 243.683594 C 207.222656 243.207031 207.566406 242.730469 207.855469 242.265625 C 207.808594 242.632813 207.765625 243.007813 207.714844 243.390625 L 212.910156 244.03125 L 213.78125 244.484375 C 212.285156 247.332031 209.9375 249.800781 207.035156 251.984375 C 204.128906 254.167969 200.640625 256.0625 196.746094 257.640625 C 188.957031 260.796875 179.535156 262.710938 169.910156 262.714844 "/>
<path style=" stroke:none;fill-rule:nonzero;fill:rgb(0.799561%,0.799561%,0.799561%);fill-opacity:1;" d="M 120.523438 244.546875 L 124.746094 241.042969 C 125.089844 241.453125 125.433594 241.851563 125.785156 242.242188 C 125.851563 242.769531 125.917969 243.3125 125.988281 243.867188 L 120.523438 244.546875 "/>
<path style=" stroke:none;fill-rule:nonzero;fill:rgb(0.799561%,0.799561%,0.799561%);fill-opacity:1;" d="M 212.910156 244.03125 L 207.714844 243.390625 C 207.765625 243.007813 207.808594 242.632813 207.855469 242.265625 C 207.996094 242.039063 208.125 241.816406 208.238281 241.59375 L 212.910156 244.03125 "/>
<path style=" stroke:none;fill-rule:nonzero;fill:rgb(1.199341%,1.599121%,1.599121%);fill-opacity:1;" d="M 132.117188 247.875 C 130.390625 246.667969 128.738281 245.285156 127.160156 243.699219 L 127.371094 222.878906 C 128.929688 223.671875 130.597656 224.351563 132.351563 224.945313 L 132.265625 233.421875 C 131.957031 233.238281 131.652344 233.050781 131.347656 232.863281 L 128.6875 237.09375 C 129.839844 237.820313 131.011719 238.492188 132.207031 239.121094 L 132.117188 247.875 "/>
<path style=" stroke:none;fill-rule:nonzero;fill:rgb(0.799561%,0.799561%,0.799561%);fill-opacity:1;" d="M 132.351563 224.945313 C 130.597656 224.351563 128.929688 223.671875 127.371094 222.878906 L 127.375 222.546875 L 132.371094 222.597656 L 132.351563 224.945313 "/>
<path style=" stroke:none;fill-rule:nonzero;fill:rgb(0.799561%,0.799561%,0.799561%);fill-opacity:1;" d="M 132.207031 239.121094 C 131.011719 238.492188 129.839844 237.820313 128.6875 237.09375 L 131.347656 232.863281 C 131.652344 233.050781 131.957031 233.238281 132.265625 233.421875 L 132.207031 239.121094 "/>
<path style=" stroke:none;fill-rule:nonzero;fill:rgb(0.799561%,0.799561%,0.799561%);fill-opacity:1;" d="M 132.101563 249.46875 L 127.101563 249.417969 L 127.160156 243.699219 C 128.738281 245.285156 130.390625 246.667969 132.117188 247.875 L 132.101563 249.46875 "/>
<path style=" stroke:none;fill-rule:nonzero;fill:rgb(1.199341%,1.599121%,1.599121%);fill-opacity:1;" d="M 141.066406 252.484375 C 139.34375 251.851563 137.679688 251.125 136.078125 250.28125 L 136.121094 240.976563 C 137.75 241.671875 139.414063 242.285156 141.113281 242.824219 L 141.066406 252.484375 M 141.136719 237.5625 C 139.429688 236.960938 137.765625 236.277344 136.148438 235.503906 L 136.191406 226.066406 C 137.808594 226.472656 139.476563 226.820313 141.1875 227.117188 L 141.136719 237.5625 "/>
<path style=" stroke:none;fill-rule:nonzero;fill:rgb(0.799561%,0.799561%,0.799561%);fill-opacity:1;" d="M 141.1875 227.117188 C 139.476563 226.820313 137.808594 226.472656 136.191406 226.066406 L 136.195313 225.410156 L 141.195313 225.433594 L 141.1875 227.117188 "/>
<path style=" stroke:none;fill-rule:nonzero;fill:rgb(0.799561%,0.799561%,0.799561%);fill-opacity:1;" d="M 141.113281 242.824219 C 139.414063 242.285156 137.75 241.671875 136.121094 240.976563 L 136.148438 235.503906 C 137.765625 236.277344 139.429688 236.960938 141.136719 237.5625 L 141.113281 242.824219 "/>
<path style=" stroke:none;fill-rule:nonzero;fill:rgb(0.799561%,0.799561%,0.799561%);fill-opacity:1;" d="M 141.058594 254.207031 L 136.058594 254.183594 L 136.078125 250.28125 C 137.679688 251.125 139.34375 251.851563 141.066406 252.484375 L 141.058594 254.207031 "/>
<path style=" stroke:none;fill-rule:nonzero;fill:rgb(1.199341%,1.599121%,1.599121%);fill-opacity:1;" d="M 150.710938 254.992188 C 149.003906 254.695313 147.335938 254.347656 145.71875 253.929688 L 145.808594 244.101563 C 147.445313 244.480469 149.109375 244.796875 150.800781 245.054688 L 150.710938 254.992188 M 150.84375 240 C 149.25 239.738281 147.6875 239.421875 146.160156 239.046875 C 146.058594 239.023438 145.957031 239 145.855469 238.972656 L 145.953125 227.804688 C 147.597656 228 149.269531 228.15625 150.949219 228.277344 L 150.84375 240 "/>
<path style=" stroke:none;fill-rule:nonzero;fill:rgb(0.799561%,0.799561%,0.799561%);fill-opacity:1;" d="M 150.949219 228.277344 C 149.269531 228.15625 147.597656 228 145.953125 227.804688 L 145.964844 226.621094 L 150.964844 226.667969 L 150.949219 228.277344 "/>
<path style=" stroke:none;fill-rule:nonzero;fill:rgb(0.799561%,0.799561%,0.799561%);fill-opacity:1;" d="M 150.800781 245.054688 C 149.109375 244.796875 147.445313 244.480469 145.808594 244.101563 L 145.855469 238.972656 C 145.957031 239 146.058594 239.023438 146.160156 239.046875 C 147.6875 239.421875 149.25 239.738281 150.84375 240 L 150.800781 245.054688 "/>
<path style=" stroke:none;fill-rule:nonzero;fill:rgb(0.799561%,0.799561%,0.799561%);fill-opacity:1;" d="M 150.695313 256.796875 L 145.695313 256.75 L 145.71875 253.929688 C 147.335938 254.347656 149.003906 254.695313 150.710938 254.992188 L 150.695313 256.796875 "/>
<path style=" stroke:none;fill-rule:nonzero;fill:rgb(1.199341%,1.599121%,1.599121%);fill-opacity:1;" d="M 159.660156 256.046875 C 157.960938 255.921875 156.292969 255.765625 154.660156 255.566406 L 154.707031 245.539063 C 156.347656 245.703125 158.011719 245.8125 159.703125 245.878906 L 159.660156 256.046875 M 159.726563 240.878906 C 158.027344 240.808594 156.359375 240.6875 154.726563 240.515625 L 154.78125 228.507813 C 156.445313 228.582031 158.117188 228.632813 159.78125 228.660156 L 159.726563 240.878906 "/>
<path style=" stroke:none;fill-rule:nonzero;fill:rgb(0.799561%,0.799561%,0.799561%);fill-opacity:1;" d="M 159.78125 228.660156 C 158.117188 228.632813 156.445313 228.582031 154.78125 228.507813 L 154.785156 227.3125 L 159.785156 227.335938 L 159.78125 228.660156 "/>
<path style=" stroke:none;fill-rule:nonzero;fill:rgb(0.799561%,0.799561%,0.799561%);fill-opacity:1;" d="M 159.703125 245.878906 C 158.011719 245.8125 156.347656 245.703125 154.707031 245.539063 L 154.726563 240.515625 C 156.359375 240.6875 158.027344 240.808594 159.726563 240.878906 L 159.703125 245.878906 "/>
<path style=" stroke:none;fill-rule:nonzero;fill:rgb(0.799561%,0.799561%,0.799561%);fill-opacity:1;" d="M 159.652344 257.867188 L 154.652344 257.847656 L 154.660156 255.566406 C 156.292969 255.765625 157.960938 255.921875 159.660156 256.046875 L 159.652344 257.867188 "/>
<path style=" stroke:none;fill-rule:nonzero;fill:rgb(1.199341%,1.599121%,1.599121%);fill-opacity:1;" d="M 169.691406 256.464844 C 168.980469 256.460938 168.269531 256.445313 167.558594 256.421875 L 167.527344 256.421875 C 166.574219 256.394531 165.628906 256.363281 164.691406 256.328125 L 164.691406 245.941406 C 165.613281 245.929688 166.542969 245.90625 167.476563 245.875 C 168.222656 245.855469 168.960938 245.835938 169.691406 245.8125 L 169.691406 256.464844 M 164.691406 240.941406 L 164.691406 228.6875 C 165.714844 228.679688 166.726563 228.667969 167.734375 228.648438 C 168.390625 228.644531 169.042969 228.640625 169.691406 228.632813 L 169.691406 240.808594 C 168.917969 240.835938 168.132813 240.855469 167.335938 240.875 L 167.300781 240.875 C 166.425781 240.910156 165.554688 240.929688 164.691406 240.941406 "/>
<path style=" stroke:none;fill-rule:nonzero;fill:rgb(0.799561%,0.799561%,0.799561%);fill-opacity:1;" d="M 164.691406 228.6875 L 164.691406 227.59375 L 169.691406 227.59375 L 169.691406 228.632813 C 169.042969 228.640625 168.390625 228.644531 167.734375 228.648438 C 166.726563 228.667969 165.714844 228.679688 164.691406 228.6875 "/>
<path style=" stroke:none;fill-rule:nonzero;fill:rgb(0.799561%,0.799561%,0.799561%);fill-opacity:1;" d="M 164.691406 245.941406 L 164.691406 240.941406 C 165.554688 240.929688 166.425781 240.910156 167.300781 240.875 L 167.335938 240.875 C 168.132813 240.855469 168.917969 240.835938 169.691406 240.808594 L 169.691406 245.8125 C 168.960938 245.835938 168.222656 245.855469 167.476563 245.875 C 166.542969 245.90625 165.613281 245.929688 164.691406 245.941406 "/>
<path style=" stroke:none;fill-rule:nonzero;fill:rgb(0.799561%,0.799561%,0.799561%);fill-opacity:1;" d="M 169.691406 258.128906 L 164.691406 258.128906 L 164.691406 256.328125 C 165.628906 256.363281 166.574219 256.394531 167.527344 256.421875 L 167.558594 256.421875 C 168.269531 256.445313 168.980469 256.460938 169.691406 256.464844 L 169.691406 258.128906 "/>
<path style=" stroke:none;fill-rule:nonzero;fill:rgb(1.199341%,1.599121%,1.599121%);fill-opacity:1;" d="M 174.320313 256.316406 L 174.273438 245.617188 C 175.976563 245.523438 177.644531 245.40625 179.273438 245.253906 L 179.320313 255.804688 C 177.675781 256.035156 176.003906 256.207031 174.320313 256.316406 M 174.25 240.609375 L 174.199219 228.550781 C 175.890625 228.503906 177.558594 228.4375 179.195313 228.355469 L 179.25 240.230469 C 177.636719 240.390625 175.972656 240.511719 174.25 240.609375 "/>
<path style=" stroke:none;fill-rule:nonzero;fill:rgb(0.799561%,0.799561%,0.799561%);fill-opacity:1;" d="M 174.199219 228.550781 L 174.191406 227.46875 L 179.191406 227.449219 L 179.195313 228.355469 C 177.558594 228.4375 175.890625 228.503906 174.199219 228.550781 "/>
<path style=" stroke:none;fill-rule:nonzero;fill:rgb(0.799561%,0.799561%,0.799561%);fill-opacity:1;" d="M 174.273438 245.617188 L 174.25 240.609375 C 175.972656 240.511719 177.636719 240.390625 179.25 240.230469 L 179.273438 245.253906 C 177.644531 245.40625 175.976563 245.523438 174.273438 245.617188 "/>
<path style=" stroke:none;fill-rule:nonzero;fill:rgb(0.799561%,0.799561%,0.799561%);fill-opacity:1;" d="M 174.328125 258.003906 L 174.320313 256.316406 C 176.003906 256.207031 177.675781 256.035156 179.320313 255.804688 L 179.328125 257.980469 L 174.328125 258.003906 "/>
<path style=" stroke:none;fill-rule:nonzero;fill:rgb(1.199341%,1.599121%,1.599121%);fill-opacity:1;" d="M 183 255.1875 L 182.90625 244.84375 C 184.605469 244.617188 186.269531 244.34375 187.898438 244.011719 L 187.988281 254.015625 C 186.375 254.464844 184.707031 254.855469 183 255.1875 M 182.859375 239.804688 L 182.757813 228.128906 C 184.460938 228 186.125 227.84375 187.753906 227.652344 L 187.851563 238.90625 C 187.539063 238.976563 187.226563 239.046875 186.90625 239.109375 C 185.597656 239.378906 184.246094 239.609375 182.859375 239.804688 "/>
<path style=" stroke:none;fill-rule:nonzero;fill:rgb(0.799561%,0.799561%,0.799561%);fill-opacity:1;" d="M 182.757813 228.128906 L 182.742188 226.667969 L 187.742188 226.621094 L 187.753906 227.652344 C 186.125 227.84375 184.460938 228 182.757813 228.128906 "/>
<path style=" stroke:none;fill-rule:nonzero;fill:rgb(0.799561%,0.799561%,0.799561%);fill-opacity:1;" d="M 182.90625 244.84375 L 182.859375 239.804688 C 184.246094 239.609375 185.597656 239.378906 186.90625 239.109375 C 187.226563 239.046875 187.539063 238.976563 187.851563 238.90625 L 187.898438 244.011719 C 186.269531 244.34375 184.605469 244.617188 182.90625 244.84375 "/>
<path style=" stroke:none;fill-rule:nonzero;fill:rgb(0.799561%,0.799561%,0.799561%);fill-opacity:1;" d="M 183.011719 256.65625 L 183 255.1875 C 184.707031 254.855469 186.375 254.464844 187.988281 254.015625 L 188.011719 256.613281 L 183.011719 256.65625 "/>
<path style=" stroke:none;fill-rule:nonzero;fill:rgb(1.199341%,1.599121%,1.599121%);fill-opacity:1;" d="M 192.777344 252.476563 L 192.734375 242.804688 C 194.433594 242.292969 196.09375 241.699219 197.726563 241.007813 L 197.769531 250.335938 C 196.222656 251.105469 194.550781 251.824219 192.777344 252.476563 M 192.710938 237.566406 L 192.660156 226.949219 C 194.378906 226.652344 196.042969 226.308594 197.652344 225.90625 L 197.699219 235.523438 C 196.082031 236.316406 194.421875 236.992188 192.710938 237.566406 "/>
<path style=" stroke:none;fill-rule:nonzero;fill:rgb(0.799561%,0.799561%,0.799561%);fill-opacity:1;" d="M 192.660156 226.949219 L 192.648438 225.027344 L 197.648438 225.003906 L 197.652344 225.90625 C 196.042969 226.308594 194.378906 226.652344 192.660156 226.949219 "/>
<path style=" stroke:none;fill-rule:nonzero;fill:rgb(0.799561%,0.799561%,0.799561%);fill-opacity:1;" d="M 192.734375 242.804688 L 192.710938 237.566406 C 194.421875 236.992188 196.082031 236.316406 197.699219 235.523438 L 197.726563 241.007813 C 196.09375 241.699219 194.433594 242.292969 192.734375 242.804688 "/>
<path style=" stroke:none;fill-rule:nonzero;fill:rgb(0.799561%,0.799561%,0.799561%);fill-opacity:1;" d="M 192.785156 253.796875 L 192.777344 252.476563 C 194.550781 251.824219 196.222656 251.105469 197.769531 250.335938 L 197.785156 253.773438 L 192.785156 253.796875 "/>
<path style=" stroke:none;fill-rule:nonzero;fill:rgb(1.199341%,1.599121%,1.599121%);fill-opacity:1;" d="M 201.871094 247.984375 L 201.78125 239.03125 C 202.976563 238.371094 204.15625 237.644531 205.316406 236.851563 L 202.496094 232.722656 C 202.238281 232.898438 201.980469 233.070313 201.722656 233.238281 L 201.636719 224.746094 C 203.382813 224.15625 205.046875 223.480469 206.617188 222.703125 L 206.828125 243.683594 C 205.917969 244.785156 204.730469 245.90625 203.285156 246.988281 C 202.835938 247.324219 202.363281 247.65625 201.871094 247.984375 "/>
<path style=" stroke:none;fill-rule:nonzero;fill:rgb(0.799561%,0.799561%,0.799561%);fill-opacity:1;" d="M 201.636719 224.746094 L 201.605469 221.511719 L 206.605469 221.460938 L 206.617188 222.703125 C 205.046875 223.480469 203.382813 224.15625 201.636719 224.746094 "/>
<path style=" stroke:none;fill-rule:nonzero;fill:rgb(0.799561%,0.799561%,0.799561%);fill-opacity:1;" d="M 201.78125 239.03125 L 201.722656 233.238281 C 201.980469 233.070313 202.238281 232.898438 202.496094 232.722656 L 205.316406 236.851563 C 204.15625 237.644531 202.976563 238.371094 201.78125 239.03125 "/>
<path style=" stroke:none;fill-rule:nonzero;fill:rgb(0.799561%,0.799561%,0.799561%);fill-opacity:1;" d="M 201.878906 248.652344 L 201.871094 247.984375 C 202.363281 247.65625 202.835938 247.324219 203.285156 246.988281 C 204.730469 245.90625 205.917969 244.785156 206.828125 243.683594 L 206.878906 248.605469 L 201.878906 248.652344 "/>
<path style=" stroke:none;fill-rule:nonzero;fill:rgb(1.199341%,1.599121%,1.599121%);fill-opacity:1;" d="M 78.257813 147.988281 C 72.003906 141.394531 66.882813 133.011719 63.046875 123.546875 C 58.886719 113.257813 56.265625 101.664063 55.621094 89.605469 L 55.621094 89.601563 C 55.554688 88.34375 55.523438 87.085938 55.523438 85.828125 C 55.527344 72.769531 59.035156 60.011719 65.046875 48.691406 C 71.070313 37.371094 79.605469 27.457031 89.863281 20.089844 L 89.910156 20.058594 C 95.394531 16.203125 101.558594 13.0625 108.074219 10.488281 C 114.597656 7.914063 121.476563 5.902344 128.417969 4.355469 C 142.300781 1.261719 156.417969 0.0078125 168.347656 0.00390625 C 170.972656 0.00390625 173.488281 0.0664063 175.878906 0.183594 C 178.746094 0.195313 181.972656 0.4375 185.492188 0.851563 C 189.070313 1.28125 192.945313 1.894531 196.960938 2.664063 C 204.988281 4.210938 213.566406 6.378906 221.363281 8.972656 C 226.5625 10.703125 231.410156 12.613281 235.578125 14.730469 C 237.945313 15.9375 240.101563 17.207031 242.011719 18.625 C 253.46875 26.953125 262.394531 37.144531 268.523438 48.679688 C 274.65625 60.203125 277.976563 73.039063 278.410156 86.566406 C 278.472656 87.933594 278.503906 89.289063 278.503906 90.632813 C 278.507813 103.3125 275.722656 114.640625 271.226563 124.308594 C 267.242188 132.886719 261.933594 140.164063 256.050781 146.066406 C 255.652344 144.101563 255.261719 142.117188 254.898438 140.117188 C 254.285156 136.738281 253.765625 133.328125 253.457031 129.929688 C 255.867188 126.640625 258.050781 123.007813 259.890625 119.042969 C 263.644531 110.949219 266 101.488281 266.003906 90.632813 C 266.003906 89.46875 265.976563 88.292969 265.921875 87.101563 L 265.917969 87.007813 C 265.539063 75.242188 262.695313 64.347656 257.488281 54.546875 C 252.277344 44.753906 244.6875 36.027344 234.640625 28.71875 L 234.582031 28.675781 C 232.863281 27.390625 230.125 25.863281 226.796875 24.398438 C 223.464844 22.929688 219.539063 21.484375 215.347656 20.160156 C 206.960938 17.507813 197.5 15.316406 189.363281 14.015625 C 183.964844 13.148438 179.109375 12.683594 175.738281 12.683594 C 175.726563 12.683594 175.71875 12.683594 175.710938 12.683594 L 175.398438 12.675781 C 173.1875 12.5625 170.828125 12.503906 168.347656 12.503906 C 168.339844 12.503906 168.335938 12.503906 168.328125 12.503906 C 160.046875 12.503906 150.472656 13.171875 140.804688 14.714844 C 131.128906 16.257813 121.351563 18.683594 112.667969 22.113281 C 106.886719 24.394531 101.597656 27.121094 97.125 30.265625 C 88.535156 36.429688 81.210938 44.90625 76.085938 54.558594 C 70.949219 64.21875 68.019531 75.027344 68.023438 85.828125 C 68.023438 86.867188 68.050781 87.90625 68.101563 88.945313 L 68.101563 88.941406 C 68.667969 99.613281 71.011719 109.910156 74.636719 118.863281 C 76.472656 123.417969 78.648438 127.621094 81.0625 131.347656 C 80.746094 134.398438 80.269531 137.460938 79.71875 140.496094 C 79.265625 143.019531 78.757813 145.519531 78.257813 147.988281 "/>
<path style=" stroke:none;fill-rule:nonzero;fill:rgb(1.199341%,1.599121%,1.599121%);fill-opacity:1;" d="M 125.871094 220.910156 L 123.507813 220.863281 C 123.511719 220.652344 123.511719 220.445313 123.511719 220.242188 C 123.511719 218.484375 123.347656 217.070313 122.988281 215.75 C 122.625 214.429688 122.070313 213.152344 121.066406 211.644531 C 120.46875 210.746094 119.707031 209.773438 118.734375 208.707031 C 118.371094 208.433594 118.019531 208.171875 117.683594 207.914063 C 116.628906 205.050781 115.433594 202.117188 113.703125 198.054688 L 108.65625 200.207031 C 107.53125 197.417969 106.371094 194.675781 105.253906 191.957031 L 99.785156 194.214844 C 93.207031 191.035156 87.035156 188.140625 80.945313 185.207031 C 80.152344 183.644531 79.453125 181.964844 78.847656 180.171875 C 77.1875 175.25 76.222656 169.5 76.21875 163.238281 C 76.21875 161.226563 76.320313 159.160156 76.535156 157.058594 L 76.589844 156.644531 C 77.074219 153.8125 77.660156 150.921875 78.257813 147.988281 C 78.800781 148.558594 79.351563 149.121094 79.914063 149.664063 C 81.128906 150.847656 82.699219 151.433594 84.269531 151.433594 C 85.898438 151.433594 87.523438 150.800781 88.75 149.539063 C 91.15625 147.066406 91.101563 143.109375 88.625 140.703125 C 85.941406 138.097656 83.390625 134.941406 81.0625 131.347656 C 81.320313 128.855469 81.46875 126.367188 81.46875 123.910156 C 81.46875 121.753906 81.355469 119.617188 81.097656 117.511719 L 81.054688 116.984375 C 81.011719 115.4375 80.492188 113.308594 79.632813 110.816406 C 78.789063 108.316406 77.652344 105.484375 76.703125 102.324219 C 76.074219 100.21875 75.535156 97.953125 75.300781 95.507813 L 75.296875 95.484375 C 74.96875 91.890625 74.652344 88.589844 74.648438 85.363281 C 74.648438 83.238281 74.789063 81.132813 75.246094 79.011719 C 75.703125 76.894531 76.507813 74.746094 77.792969 72.789063 C 78.648438 71.484375 79.703125 70.277344 80.910156 69.222656 L 89.144531 78.628906 C 88.742188 78.980469 88.476563 79.296875 88.25 79.636719 C 88.03125 79.976563 87.847656 80.347656 87.683594 80.835938 C 87.359375 81.800781 87.140625 83.292969 87.148438 85.363281 C 87.144531 87.710938 87.410156 90.742188 87.746094 94.34375 L 87.742188 94.320313 C 87.925781 96.304688 88.589844 98.664063 89.503906 101.269531 C 90.40625 103.878906 91.535156 106.703125 92.414063 109.816406 C 92.96875 111.8125 93.417969 113.945313 93.535156 116.242188 C 93.839844 118.828125 93.96875 121.390625 93.96875 123.910156 C 93.96875 130.515625 93.082031 136.847656 92.019531 142.722656 C 90.972656 148.507813 89.75 153.867188 88.949219 158.527344 C 88.792969 160.136719 88.71875 161.707031 88.71875 163.238281 C 88.71875 166.953125 89.160156 170.402344 89.882813 173.375 C 90.601563 176.34375 91.617188 178.828125 92.652344 180.570313 C 93.320313 181.710938 93.996094 182.523438 94.488281 182.964844 C 96.328125 184.597656 98.546875 185.855469 101.257813 186.972656 C 103.929688 188.078125 107.050781 189.015625 110.464844 190.054688 C 114.128906 191.015625 117.15625 192.441406 119.714844 194.039063 C 122.3125 195.660156 124.414063 197.359375 126.667969 199.03125 C 126.964844 199.253906 127.230469 199.488281 127.480469 199.757813 C 129.796875 202.214844 131.628906 204.679688 132.984375 207.25 C 134.34375 209.8125 135.195313 212.472656 135.617188 215.085938 C 135.90625 216.828125 136.011719 218.546875 136.011719 220.242188 C 136.011719 220.441406 136.011719 220.644531 136.007813 220.84375 C 132.917969 219.964844 130.179688 218.855469 127.96875 217.492188 L 125.871094 220.910156 M 94.492188 182.96875 C 94.5 182.976563 94.507813 182.984375 94.515625 182.988281 L 94.492188 182.96875 "/>
<path style=" stroke:none;fill-rule:nonzero;fill:rgb(0.799561%,0.799561%,0.799561%);fill-opacity:1;" d="M 117.683594 207.914063 C 115.9375 206.597656 114.492188 205.507813 113.121094 204.660156 C 112.027344 203.988281 110.972656 203.429688 109.734375 202.941406 C 109.378906 202.023438 109.019531 201.113281 108.65625 200.207031 L 113.703125 198.054688 C 115.433594 202.117188 116.628906 205.050781 117.683594 207.914063 "/>
<path style=" stroke:none;fill-rule:nonzero;fill:rgb(0.799561%,0.799561%,0.799561%);fill-opacity:1;" d="M 136.003906 221.121094 L 125.871094 220.910156 L 127.96875 217.492188 C 130.179688 218.855469 132.917969 219.964844 136.007813 220.84375 C 136.007813 220.933594 136.003906 221.027344 136.003906 221.121094 "/>
<path style=" stroke:none;fill-rule:nonzero;fill:rgb(0.799561%,0.799561%,0.799561%);fill-opacity:1;" d="M 84.269531 151.433594 C 82.699219 151.433594 81.128906 150.847656 79.914063 149.664063 C 79.351563 149.121094 78.800781 148.558594 78.257813 147.988281 C 78.757813 145.519531 79.265625 143.019531 79.71875 140.496094 C 80.269531 137.460938 80.746094 134.398438 81.0625 131.347656 C 83.390625 134.941406 85.941406 138.097656 88.625 140.703125 C 91.101563 143.109375 91.15625 147.066406 88.75 149.539063 C 87.523438 150.800781 85.898438 151.433594 84.269531 151.433594 "/>
<path style=" stroke:none;fill-rule:nonzero;fill:rgb(1.199341%,1.599121%,1.599121%);fill-opacity:1;" d="M 208.53125 220.535156 L 206.453125 217.101563 C 204.199219 218.46875 201.570313 219.574219 198.609375 220.460938 C 198.609375 220.296875 198.609375 220.128906 198.609375 219.964844 C 198.605469 216.464844 199.125 212.839844 200.539063 209.3125 C 201.941406 205.78125 204.226563 202.433594 207.351563 199.433594 C 207.539063 199.253906 207.605469 199.195313 207.808594 199.03125 C 210.21875 197.125 212.777344 195.328125 215.449219 193.746094 C 218.101563 192.179688 220.863281 190.820313 223.730469 189.8125 C 224.648438 189.472656 225.621094 189.148438 226.679688 188.796875 C 227.753906 188.4375 228.902344 188.054688 230.078125 187.636719 C 232.425781 186.808594 234.886719 185.824219 236.898438 184.742188 C 238.234375 184.03125 239.359375 183.273438 240.121094 182.597656 C 240.609375 182.15625 241.292969 181.339844 241.96875 180.191406 C 242.65625 179.03125 243.339844 177.539063 243.929688 175.792969 C 245.113281 172.300781 245.902344 167.8125 245.898438 162.859375 C 245.898438 161.328125 245.824219 159.753906 245.667969 158.148438 C 244.867188 153.488281 243.648438 148.128906 242.601563 142.34375 C 241.539063 136.46875 240.652344 130.136719 240.648438 123.53125 C 240.648438 121.007813 240.78125 118.445313 241.085938 115.855469 C 241.269531 112.359375 242.191406 109.265625 243.148438 106.417969 C 244.148438 103.496094 245.21875 100.804688 245.9375 98.371094 C 246.421875 96.757813 246.75 95.273438 246.875 93.953125 C 247.207031 90.359375 247.476563 87.332031 247.472656 84.984375 C 247.472656 83.4375 247.359375 82.199219 247.15625 81.28125 C 246.953125 80.355469 246.695313 79.761719 246.367188 79.257813 C 246.144531 78.917969 245.878906 78.601563 245.476563 78.25 L 253.707031 68.839844 C 254.914063 69.898438 255.972656 71.101563 256.824219 72.410156 C 257.679688 73.714844 258.328125 75.105469 258.796875 76.515625 C 259.726563 79.339844 259.96875 82.15625 259.972656 84.984375 C 259.96875 88.210938 259.648438 91.511719 259.320313 95.105469 L 259.320313 95.128906 C 258.964844 98.796875 257.9375 102.054688 256.921875 104.996094 C 255.898438 107.929688 254.863281 110.566406 254.246094 112.800781 C 253.828125 114.285156 253.597656 115.570313 253.5625 116.605469 L 253.523438 117.132813 C 253.265625 119.242188 253.148438 121.375 253.148438 123.53125 C 253.148438 125.648438 253.261719 127.785156 253.457031 129.929688 C 250.945313 133.359375 248.183594 136.414063 245.296875 139.074219 C 242.757813 141.410156 242.597656 145.367188 244.9375 147.902344 C 246.167969 149.242188 247.847656 149.917969 249.53125 149.917969 C 251.046875 149.917969 252.566406 149.371094 253.769531 148.265625 C 254.535156 147.554688 255.296875 146.824219 256.050781 146.066406 C 256.75 149.53125 257.460938 152.9375 258.027344 156.265625 L 258.085938 156.679688 C 258.296875 158.78125 258.398438 160.847656 258.398438 162.859375 C 258.398438 167.554688 257.851563 171.964844 256.882813 175.953125 C 256.121094 179.058594 255.117188 181.90625 253.859375 184.453125 C 247.542969 187.546875 241.058594 190.722656 234.078125 194.167969 L 228.730469 191.957031 C 227.894531 193.976563 227.042969 196.007813 226.199219 198.0625 L 225.726563 198.296875 L 225.933594 198.710938 C 225.769531 199.105469 225.609375 199.5 225.449219 199.898438 L 220.003906 197.574219 C 218.136719 201.945313 216.894531 205.011719 215.78125 208.085938 C 215.671875 208.394531 215.5625 208.699219 215.453125 209.003906 C 213.78125 210.738281 212.796875 212.332031 212.144531 213.949219 C 211.429688 215.746094 211.109375 217.65625 211.109375 219.964844 C 211.109375 220.136719 211.109375 220.308594 211.113281 220.480469 L 208.53125 220.535156 M 225.855469 195.691406 L 225.855469 195.691406 M 240.117188 182.597656 L 240.105469 182.609375 C 240.109375 182.605469 240.113281 182.601563 240.117188 182.597656 M 247.316406 116.378906 L 247.316406 116.378906 "/>
<path style=" stroke:none;fill-rule:nonzero;fill:rgb(0.799561%,0.799561%,0.799561%);fill-opacity:1;" d="M 215.453125 209.003906 C 215.5625 208.699219 215.671875 208.394531 215.78125 208.085938 C 216.894531 205.011719 218.136719 201.945313 220.003906 197.574219 L 225.449219 199.898438 C 225.003906 201 224.566406 202.109375 224.136719 203.226563 C 223.371094 203.617188 222.59375 204.042969 221.8125 204.507813 C 219.800781 205.695313 217.769531 207.109375 215.816406 208.636719 C 215.691406 208.761719 215.574219 208.882813 215.453125 209.003906 "/>
<path style=" stroke:none;fill-rule:nonzero;fill:rgb(0.799561%,0.799561%,0.799561%);fill-opacity:1;" d="M 198.617188 220.746094 C 198.613281 220.648438 198.613281 220.554688 198.609375 220.460938 C 201.570313 219.574219 204.199219 218.46875 206.453125 217.101563 L 208.53125 220.535156 L 198.617188 220.746094 "/>
<path style=" stroke:none;fill-rule:nonzero;fill:rgb(0.799561%,0.799561%,0.799561%);fill-opacity:1;" d="M 249.53125 149.917969 C 247.847656 149.917969 246.167969 149.242188 244.9375 147.902344 C 242.597656 145.367188 242.757813 141.410156 245.296875 139.074219 C 248.183594 136.414063 250.945313 133.359375 253.457031 129.929688 C 253.765625 133.328125 254.285156 136.738281 254.898438 140.117188 C 255.261719 142.117188 255.652344 144.101563 256.050781 146.066406 C 255.296875 146.824219 254.535156 147.554688 253.769531 148.265625 C 252.566406 149.371094 251.046875 149.917969 249.53125 149.917969 "/>
<path style=" stroke:none;fill-rule:nonzero;fill:rgb(1.199341%,1.599121%,1.599121%);fill-opacity:1;" d="M 167.328125 297.082031 C 167.246094 297.082031 167.167969 297.082031 167.085938 297.082031 C 167.167969 297.082031 167.25 297.082031 167.328125 297.082031 M 166.785156 297.082031 C 160.398438 297.066406 155.128906 296.78125 149.933594 295.933594 C 144.59375 295.058594 139.449219 293.597656 133.441406 291.414063 L 133.324219 291.375 L 133.214844 291.328125 C 127.96875 289.171875 123.175781 285.679688 118.917969 281.519531 C 117.386719 280.015625 115.925781 278.417969 114.554688 276.757813 L 116.242188 275.863281 L 110.390625 264.816406 L 107.609375 266.292969 C 106.039063 263.25 104.800781 260.128906 104.007813 256.96875 C 103.742188 255.960938 103.496094 254.933594 103.273438 253.886719 C 105.144531 252.894531 107.023438 251.898438 108.917969 250.890625 L 103.0625 239.847656 C 102.621094 240.082031 102.183594 240.316406 101.746094 240.546875 C 101.734375 240.070313 101.730469 239.59375 101.730469 239.117188 C 101.730469 238.589844 101.738281 238.0625 101.75 237.535156 C 102.382813 237.847656 103.019531 238.160156 103.652344 238.472656 L 109.175781 227.257813 C 107.03125 226.203125 104.882813 225.144531 102.722656 224.089844 C 102.253906 220.363281 101.273438 216.570313 99.960938 212.644531 C 99.367188 210.867188 98.703125 209.066406 97.996094 207.242188 C 98.09375 207.289063 98.195313 207.339844 98.292969 207.386719 L 101.699219 200.421875 C 103.46875 201 105.222656 201.523438 106.941406 202.046875 L 107.183594 202.117188 C 107.78125 202.277344 108.332031 202.441406 108.847656 202.617188 C 110.203125 205.839844 111.167969 208.273438 112.042969 210.691406 C 112.746094 212.632813 113.394531 214.582031 114.144531 216.9375 C 114.863281 220.171875 115.351563 223.5 115.492188 226.933594 L 115.523438 227.769531 L 115.335938 228.585938 C 114.59375 231.820313 114.230469 235.441406 114.230469 239.117188 C 114.226563 244.222656 114.933594 249.425781 116.101563 253.808594 L 116.113281 253.855469 L 116.128906 253.90625 C 116.964844 257.328125 118.90625 261.445313 121.578125 265.320313 C 124.238281 269.207031 127.613281 272.875 131.097656 275.621094 C 133.378906 277.425781 135.703125 278.828125 137.828125 279.707031 C 143.339844 281.703125 147.574219 282.878906 151.953125 283.597656 C 156.300781 284.308594 160.894531 284.574219 167.066406 284.582031 C 166.976563 284.582031 166.886719 284.582031 166.800781 284.582031 C 166.796875 284.582031 166.789063 284.582031 166.785156 284.582031 L 166.785156 297.082031 "/>
<path style=" stroke:none;fill-rule:nonzero;fill:rgb(0.799561%,0.799561%,0.799561%);fill-opacity:1;" d="M 114.144531 216.9375 C 113.394531 214.582031 112.746094 212.632813 112.042969 210.691406 C 111.167969 208.273438 110.203125 205.839844 108.847656 202.617188 C 109.152344 202.722656 109.449219 202.828125 109.734375 202.941406 C 110.464844 204.828125 111.164063 206.738281 111.8125 208.679688 C 112.714844 211.367188 113.515625 214.117188 114.144531 216.9375 "/>
<path style=" stroke:none;fill-rule:nonzero;fill:rgb(0.799561%,0.799561%,0.799561%);fill-opacity:1;" d="M 108.847656 202.617188 C 108.332031 202.441406 107.78125 202.277344 107.183594 202.117188 L 106.941406 202.046875 C 105.222656 201.523438 103.46875 201 101.699219 200.421875 L 103.785156 196.15625 C 102.433594 195.496094 101.101563 194.851563 99.785156 194.214844 L 105.253906 191.957031 C 106.371094 194.675781 107.53125 197.417969 108.65625 200.207031 L 107.953125 200.507813 C 108.269531 201.246094 108.566406 201.949219 108.847656 202.617188 "/>
<path style=" stroke:none;fill-rule:nonzero;fill:rgb(0.799561%,0.799561%,0.799561%);fill-opacity:1;" d="M 109.734375 202.941406 C 109.449219 202.828125 109.152344 202.722656 108.847656 202.617188 C 108.566406 201.949219 108.269531 201.246094 107.953125 200.507813 L 108.65625 200.207031 C 109.019531 201.113281 109.378906 202.023438 109.734375 202.941406 "/>
<path style=" stroke:none;fill-rule:nonzero;fill:rgb(1.199341%,1.599121%,1.599121%);fill-opacity:1;" d="M 166.785156 297.082031 C 166.886719 297.082031 166.988281 297.082031 167.085938 297.082031 C 166.988281 297.082031 166.886719 297.082031 166.785156 297.082031 M 167.328125 297.082031 L 167.328125 284.582031 C 167.242188 284.582031 167.152344 284.582031 167.066406 284.582031 C 173.230469 284.574219 177.800781 284.304688 182.0625 283.558594 C 186.386719 282.796875 190.515625 281.542969 195.910156 279.347656 C 199.195313 278.015625 202.914063 275.484375 206.273438 272.261719 C 209.644531 269.042969 212.675781 265.148438 214.820313 261.289063 C 216.257813 258.71875 217.296875 256.164063 217.855469 253.90625 L 217.867188 253.859375 L 217.878906 253.808594 C 219.050781 249.425781 219.753906 244.21875 219.75 239.113281 C 219.753906 235.441406 219.390625 231.820313 218.644531 228.585938 L 218.457031 227.769531 L 218.488281 226.933594 C 218.730469 221.027344 220.003906 215.433594 221.710938 210.078125 C 222.484375 207.941406 223.339844 205.777344 224.472656 203.058594 C 225.484375 202.554688 226.480469 202.121094 227.441406 201.761719 L 231.265625 209.5 L 236.019531 207.148438 C 235.300781 209.007813 234.625 210.839844 234.019531 212.644531 C 232.742188 216.464844 231.78125 220.164063 231.296875 223.792969 L 220.082031 229.082031 L 225.410156 240.386719 L 232.222656 237.175781 C 232.242188 237.824219 232.25 238.46875 232.25 239.113281 C 232.25 239.710938 232.242188 240.308594 232.226563 240.902344 L 230.214844 239.972656 L 224.957031 251.3125 L 230.691406 253.96875 C 230.472656 254.988281 230.230469 255.988281 229.972656 256.972656 C 229.179688 260.125 227.941406 263.222656 226.363281 266.222656 L 222.054688 263.980469 L 216.289063 275.070313 L 219.296875 276.636719 C 216.640625 279.777344 213.660156 282.660156 210.460938 285.132813 C 207.382813 287.503906 204.097656 289.503906 200.632813 290.917969 C 194.71875 293.335938 189.574219 294.933594 184.21875 295.867188 C 179.007813 296.78125 173.71875 297.066406 167.328125 297.082031 "/>
<path style=" stroke:none;fill-rule:nonzero;fill:rgb(0.799561%,0.799561%,0.799561%);fill-opacity:1;" d="M 221.710938 210.078125 C 221.859375 209.609375 222.011719 209.144531 222.164063 208.679688 C 222.785156 206.835938 223.445313 205.023438 224.136719 203.226563 C 224.246094 203.167969 224.359375 203.113281 224.472656 203.058594 C 223.339844 205.777344 222.484375 207.941406 221.710938 210.078125 "/>
<path style=" stroke:none;fill-rule:nonzero;fill:rgb(0.799561%,0.799561%,0.799561%);fill-opacity:1;" d="M 224.472656 203.058594 C 224.863281 202.121094 225.285156 201.117188 225.75 200.023438 L 225.449219 199.898438 C 225.609375 199.5 225.769531 199.105469 225.933594 198.710938 L 227.441406 201.761719 C 226.480469 202.121094 225.484375 202.554688 224.472656 203.058594 M 226.199219 198.0625 C 227.042969 196.007813 227.894531 193.976563 228.730469 191.957031 L 234.078125 194.167969 C 233.171875 194.613281 232.253906 195.066406 231.328125 195.523438 L 226.199219 198.0625 "/>
<path style=" stroke:none;fill-rule:nonzero;fill:rgb(0.799561%,0.799561%,0.799561%);fill-opacity:1;" d="M 224.136719 203.226563 C 224.566406 202.109375 225.003906 201 225.449219 199.898438 L 225.75 200.023438 C 225.285156 201.117188 224.863281 202.121094 224.472656 203.058594 C 224.359375 203.113281 224.246094 203.167969 224.136719 203.226563 "/>
<path style=" stroke:none;fill-rule:nonzero;fill:rgb(0.799561%,0.799561%,0.799561%);fill-opacity:1;" d="M 167.085938 297.082031 C 166.988281 297.082031 166.886719 297.082031 166.785156 297.082031 L 166.785156 284.582031 C 166.789063 284.582031 166.796875 284.582031 166.800781 284.582031 C 166.886719 284.582031 166.976563 284.582031 167.066406 284.582031 C 167.152344 284.582031 167.242188 284.582031 167.328125 284.582031 L 167.328125 297.082031 C 167.25 297.082031 167.167969 297.082031 167.085938 297.082031 "/>
<g clip-path="url(#clip1)" clip-rule="nonzero">
<path style=" stroke:none;fill-rule:nonzero;fill:rgb(1.199341%,1.599121%,1.599121%);fill-opacity:1;" d="M 283.730469 321.960938 C 283.726563 321.960938 283.722656 321.960938 283.714844 321.960938 C 282.328125 321.960938 281.007813 321.710938 279.800781 321.320313 C 278.585938 320.929688 277.472656 320.398438 276.410156 319.78125 C 274.359375 318.589844 272.476563 317.082031 270.507813 315.289063 C 268.679688 313.851563 267.226563 312.238281 266.132813 310.644531 C 264.992188 308.988281 264.230469 307.40625 263.597656 306.035156 C 263.171875 305.117188 262.800781 304.28125 262.414063 303.488281 C 261.898438 302.433594 261.363281 301.453125 260.648438 300.410156 C 259.777344 299.144531 258.628906 297.765625 256.855469 296.15625 L 219.296875 276.636719 C 220.472656 275.242188 221.585938 273.800781 222.628906 272.320313 C 224.011719 270.347656 225.269531 268.308594 226.363281 266.222656 L 263.308594 285.421875 C 263.773438 285.664063 264.136719 285.910156 264.53125 286.253906 C 267.683594 288.992188 269.910156 291.675781 271.507813 294.167969 C 273.105469 296.652344 274.0625 298.878906 274.820313 300.523438 C 275.324219 301.628906 275.738281 302.46875 276.15625 303.140625 C 276.726563 304.035156 277.257813 304.695313 278.363281 305.566406 L 278.769531 305.90625 C 279.847656 306.902344 280.804688 307.691406 281.597656 308.261719 C 282.390625 308.832031 283.015625 309.175781 283.386719 309.328125 C 283.417969 309.34375 283.449219 309.355469 283.476563 309.367188 C 283.617188 309.226563 283.8125 309.015625 284.042969 308.710938 C 284.515625 307.648438 284.863281 306.574219 285.140625 305.4375 C 285.457031 304.132813 285.671875 302.742188 285.832031 301.226563 C 286.164063 298.195313 286.253906 294.664063 286.808594 290.648438 C 287 289.269531 287.664063 287.96875 288.667969 287.003906 C 291.210938 284.558594 293.484375 282.757813 295.398438 281.152344 C 297.328125 279.539063 298.898438 278.144531 300.464844 276.316406 L 300.570313 276.195313 C 301.058594 275.65625 301.378906 275.191406 301.558594 274.871094 C 301.609375 274.777344 301.648438 274.695313 301.679688 274.628906 C 301.453125 274.402344 300.976563 274.015625 300.160156 273.585938 C 298.742188 273.015625 297.4375 272.578125 296.207031 272.285156 C 294.898438 271.972656 293.679688 271.8125 292.410156 271.808594 C 291 271.8125 289.507813 272.007813 287.746094 272.523438 C 285.304688 273.28125 282.410156 273.980469 279.097656 273.984375 C 279.078125 273.984375 279.0625 273.984375 279.042969 273.984375 C 276.121094 273.984375 272.929688 273.394531 269.695313 272.039063 L 269.46875 271.9375 L 230.691406 253.96875 C 231.574219 249.824219 232.113281 245.398438 232.226563 240.902344 L 274.597656 260.539063 C 276.382813 261.261719 277.757813 261.476563 279.097656 261.484375 C 279.101563 261.484375 279.101563 261.484375 279.101563 261.484375 C 280.640625 261.484375 282.210938 261.15625 284.082031 260.570313 L 284.167969 260.546875 C 286.996094 259.707031 289.753906 259.308594 292.390625 259.308594 C 292.394531 259.308594 292.402344 259.308594 292.410156 259.308594 C 292.414063 259.308594 292.417969 259.308594 292.421875 259.308594 C 294.777344 259.308594 297.019531 259.625 299.125 260.128906 C 301.238281 260.636719 303.21875 261.335938 305.121094 262.109375 L 305.59375 262.324219 C 307.386719 263.234375 308.992188 264.304688 310.375 265.648438 C 311.753906 266.984375 312.910156 268.636719 313.589844 270.53125 C 314.042969 271.789063 314.273438 273.132813 314.269531 274.441406 C 314.269531 276.488281 313.734375 278.394531 312.9375 280.0625 C 312.148438 281.710938 311.109375 283.160156 309.910156 284.503906 C 307.695313 287.082031 305.480469 289.019531 303.417969 290.742188 C 301.878906 292.027344 300.421875 293.203125 298.933594 294.53125 C 298.765625 296.226563 298.652344 297.988281 298.507813 299.84375 C 298.296875 302.492188 298.019531 305.347656 297.289063 308.375 C 296.804688 310.390625 296.105469 312.476563 295.105469 314.570313 C 294.945313 314.902344 294.828125 315.105469 294.617188 315.40625 C 293.714844 316.722656 292.707031 317.925781 291.480469 318.976563 C 290.261719 320.027344 288.785156 320.921875 287.121094 321.441406 C 286.023438 321.785156 284.863281 321.960938 283.730469 321.960938 M 289.46875 311.867188 L 289.46875 311.867188 M 283.628906 310.261719 L 283.628906 310.261719 M 283.628906 310.261719 L 283.628906 310.261719 "/>
</g>
<path style=" stroke:none;fill-rule:nonzero;fill:rgb(0.799561%,0.799561%,0.799561%);fill-opacity:1;" d="M 219.296875 276.636719 L 216.289063 275.070313 L 222.054688 263.980469 L 226.363281 266.222656 C 225.269531 268.308594 224.011719 270.347656 222.628906 272.320313 C 221.585938 273.800781 220.472656 275.242188 219.296875 276.636719 M 230.691406 253.96875 L 224.957031 251.3125 L 230.214844 239.972656 L 232.226563 240.902344 C 232.113281 245.398438 231.574219 249.824219 230.691406 253.96875 "/>
<g clip-path="url(#clip2)" clip-rule="nonzero">
<path style=" stroke:none;fill-rule:nonzero;fill:rgb(1.199341%,1.599121%,1.599121%);fill-opacity:1;" d="M 50.574219 321.96875 C 48.5 321.96875 46.265625 321.417969 44.324219 320.25 C 42.355469 319.078125 40.757813 317.367188 39.570313 315.40625 C 38.773438 314.09375 38.140625 312.660156 37.628906 311.109375 C 37.484375 310.679688 37.398438 310.273438 37.351563 309.824219 C 36.976563 306.371094 36.75 303.472656 36.46875 300.863281 C 36.253906 298.875 36.015625 297.058594 35.664063 295.203125 C 34.246094 293.84375 32.898438 292.578125 31.480469 291.25 C 29.625 289.503906 27.660156 287.65625 25.347656 285.386719 L 25.203125 285.242188 C 23.820313 283.796875 22.679688 282.148438 21.875 280.328125 C 21.074219 278.511719 20.613281 276.511719 20.617188 274.46875 C 20.609375 272.246094 21.167969 269.992188 22.226563 267.976563 C 23.28125 265.957031 24.808594 264.1875 26.652344 262.726563 C 27.234375 262.265625 27.855469 261.929688 28.558594 261.695313 C 33.414063 260.074219 37.335938 259.40625 40.75 259.40625 C 40.753906 259.40625 40.757813 259.40625 40.761719 259.40625 C 40.773438 259.40625 40.78125 259.40625 40.792969 259.40625 C 42.820313 259.40625 44.628906 259.652344 46.167969 259.976563 C 47.71875 260.304688 48.988281 260.6875 50.050781 260.976563 C 50.757813 261.167969 51.378906 261.324219 51.972656 261.4375 C 52.765625 261.589844 53.515625 261.679688 54.4375 261.679688 C 55.539063 261.679688 56.917969 261.546875 58.800781 261.101563 C 66.9375 257.96875 74.253906 254.644531 81.375 251.132813 C 88.171875 247.773438 94.792969 244.238281 101.746094 240.546875 C 101.839844 245.132813 102.375 249.65625 103.273438 253.886719 C 97.839844 256.769531 92.46875 259.59375 86.90625 262.339844 C 79.433594 266.03125 71.621094 269.578125 62.898438 272.917969 C 62.65625 273.011719 62.421875 273.085938 62.167969 273.148438 C 59.292969 273.863281 56.746094 274.179688 54.449219 274.179688 C 54.445313 274.179688 54.441406 274.179688 54.4375 274.179688 C 54.425781 274.179688 54.414063 274.179688 54.40625 274.179688 C 52.398438 274.179688 50.605469 273.929688 49.082031 273.605469 C 47.542969 273.277344 46.285156 272.894531 45.230469 272.613281 C 44.523438 272.421875 43.902344 272.265625 43.296875 272.148438 C 42.492188 271.996094 41.71875 271.90625 40.761719 271.90625 C 39.175781 271.90625 37.003906 272.171875 33.730469 273.167969 C 33.519531 273.402344 33.390625 273.605469 33.304688 273.769531 C 33.152344 274.070313 33.121094 274.25 33.117188 274.46875 C 33.117188 274.667969 33.15625 274.921875 33.3125 275.28125 C 33.464844 275.628906 33.734375 276.066406 34.179688 276.542969 C 36.355469 278.675781 38.210938 280.421875 40.039063 282.136719 C 41.890625 283.875 43.714844 285.582031 45.761719 287.585938 C 46.632813 288.4375 47.222656 289.488281 47.488281 290.675781 C 48.195313 293.796875 48.589844 296.671875 48.898438 299.527344 C 49.179688 302.175781 49.394531 304.8125 49.703125 307.757813 C 49.9375 308.371094 50.167969 308.796875 50.351563 309.066406 C 50.503906 309.296875 50.613281 309.414063 50.675781 309.46875 C 50.800781 309.460938 51.121094 309.414063 51.597656 309.210938 C 52.007813 309.042969 52.523438 308.761719 53.078125 308.378906 C 54.238281 306.996094 55.359375 305.808594 56.300781 304.726563 C 57.394531 303.488281 58.230469 302.402344 58.734375 301.488281 L 58.78125 301.410156 C 59.949219 299.390625 61.230469 297.144531 62.667969 294.863281 C 64.105469 292.582031 65.699219 290.257813 67.53125 288.050781 C 68.066406 287.414063 68.671875 286.921875 69.40625 286.53125 L 107.609375 266.292969 C 107.800781 266.660156 107.992188 267.023438 108.191406 267.390625 C 109.976563 270.648438 112.128906 273.8125 114.554688 276.757813 L 76.394531 296.976563 C 75.320313 298.355469 74.265625 299.902344 73.246094 301.523438 C 71.996094 303.507813 70.796875 305.597656 69.617188 307.636719 C 68.410156 309.777344 67 311.480469 65.703125 312.964844 C 64.394531 314.457031 63.183594 315.738281 62.269531 316.875 C 61.941406 317.28125 61.640625 317.578125 61.222656 317.898438 C 59.757813 319.027344 58.175781 320.007813 56.425781 320.742188 C 54.679688 321.472656 52.742188 321.96875 50.636719 321.96875 C 50.613281 321.96875 50.59375 321.96875 50.574219 321.96875 M 57.40625 312.953125 L 57.40625 312.953125 M 60.664063 267.082031 L 60.664063 267.082031 "/>
</g>
<path style=" stroke:none;fill-rule:nonzero;fill:rgb(0.799561%,0.799561%,0.799561%);fill-opacity:1;" d="M 114.554688 276.757813 C 112.128906 273.8125 109.976563 270.648438 108.191406 267.390625 C 107.992188 267.023438 107.800781 266.660156 107.609375 266.292969 L 110.390625 264.816406 L 116.242188 275.863281 L 114.554688 276.757813 M 103.273438 253.886719 C 102.375 249.65625 101.839844 245.132813 101.746094 240.546875 C 102.183594 240.316406 102.621094 240.082031 103.0625 239.847656 L 108.917969 250.890625 C 107.023438 251.898438 105.144531 252.894531 103.273438 253.886719 "/>
<g clip-path="url(#clip3)" clip-rule="nonzero">
<path style=" stroke:none;fill-rule:nonzero;fill:rgb(1.199341%,1.599121%,1.599121%);fill-opacity:1;" d="M 232.222656 237.175781 C 232.121094 233.636719 231.742188 230.097656 231.019531 226.660156 C 231.078125 225.710938 231.171875 224.753906 231.296875 223.792969 L 287.347656 197.375 L 287.714844 197.214844 C 289.582031 196.476563 291.328125 195.941406 292.988281 195.59375 C 294.640625 195.246094 296.214844 195.089844 297.679688 195.089844 C 297.683594 195.089844 297.691406 195.089844 297.695313 195.089844 C 297.703125 195.089844 297.714844 195.089844 297.722656 195.089844 C 300.117188 195.089844 302.171875 195.519531 303.785156 195.933594 C 305.417969 196.355469 306.617188 196.726563 307.699219 196.921875 C 308.421875 197.058594 309.105469 197.136719 309.910156 197.136719 C 310.632813 197.136719 311.460938 197.070313 312.492188 196.882813 C 312.855469 196.816406 313.183594 196.78125 313.550781 196.777344 C 315.25 196.761719 316.785156 196.558594 317.976563 196.238281 C 319.175781 195.917969 320.003906 195.480469 320.441406 195.132813 C 320.742188 194.894531 320.882813 194.714844 320.988281 194.539063 C 321.03125 194.457031 321.074219 194.371094 321.113281 194.265625 C 319.710938 192.332031 318.328125 190.667969 316.683594 188.898438 C 314.582031 186.640625 312.023438 184.203125 308.574219 181.023438 C 307.210938 179.765625 306.472656 177.949219 306.566406 176.101563 C 306.601563 175.4375 306.621094 174.777344 306.621094 174.121094 C 306.617188 169.210938 305.664063 164.433594 303.789063 159.46875 C 303.738281 159.414063 303.6875 159.367188 303.648438 159.332031 C 303.53125 159.234375 303.476563 159.207031 303.464844 159.203125 L 303.425781 159.199219 C 303.332031 159.203125 302.949219 159.214844 302.128906 159.625 C 301.316406 160.027344 300.121094 160.835938 298.660156 162.230469 C 298.472656 162.410156 298.332031 162.527344 298.121094 162.6875 C 297.121094 163.453125 296.519531 164.136719 295.953125 164.96875 C 295.394531 165.800781 294.886719 166.828125 294.308594 168.171875 C 293.921875 169.0625 293.507813 170.085938 293.003906 171.21875 C 292.335938 172.726563 291.507813 174.429688 290.367188 176.207031 C 288.855469 178.585938 286.785156 181.058594 283.972656 183.398438 C 283.574219 183.734375 283.203125 183.972656 282.734375 184.203125 C 267.507813 191.726563 253.671875 198.421875 236.871094 206.730469 L 236.019531 207.148438 C 237.292969 203.878906 238.710938 200.523438 240.140625 197.074219 C 242.972656 195.773438 245.859375 194.199219 248.433594 191.929688 L 248.464844 191.902344 C 250.152344 190.378906 251.53125 188.574219 252.734375 186.546875 C 253.128906 185.871094 253.503906 185.175781 253.859375 184.453125 C 261.457031 180.734375 268.8125 177.136719 276.488281 173.347656 C 278.246094 171.789063 279.296875 170.394531 280.164063 168.945313 C 281.109375 167.363281 281.800781 165.644531 282.683594 163.5625 C 283.277344 162.183594 283.957031 160.644531 284.925781 159.023438 C 286.160156 156.945313 287.921875 154.777344 290.304688 152.929688 C 292.359375 151.015625 294.390625 149.527344 296.511719 148.457031 C 298.710938 147.347656 301.054688 146.699219 303.414063 146.699219 C 303.417969 146.699219 303.421875 146.699219 303.425781 146.699219 C 303.429688 146.699219 303.429688 146.699219 303.433594 146.699219 C 304.648438 146.699219 305.847656 146.875 306.96875 147.203125 C 308.09375 147.53125 309.140625 148.011719 310.070313 148.585938 C 311.933594 149.742188 313.335938 151.234375 314.40625 152.769531 C 314.664063 153.140625 314.921875 153.617188 315.089844 154.035156 C 317.617188 160.390625 319.074219 166.960938 319.117188 173.757813 C 321.6875 176.15625 323.851563 178.253906 325.832031 180.378906 C 328.320313 183.050781 330.492188 185.757813 332.644531 188.941406 C 333.253906 189.847656 333.621094 190.898438 333.699219 191.988281 C 333.730469 192.425781 333.75 192.859375 333.75 193.292969 C 333.753906 195.539063 333.292969 197.765625 332.359375 199.738281 C 331.4375 201.71875 330.0625 203.398438 328.503906 204.6875 C 327.464844 205.550781 326.34375 206.253906 325.1875 206.828125 C 323.644531 207.59375 322.039063 208.132813 320.398438 208.515625 C 318.386719 208.980469 316.316406 209.214844 314.226563 209.269531 C 312.699219 209.519531 311.261719 209.636719 309.917969 209.636719 C 309.914063 209.636719 309.910156 209.636719 309.910156 209.636719 C 309.894531 209.636719 309.882813 209.636719 309.871094 209.636719 C 307.382813 209.636719 305.242188 209.226563 303.554688 208.804688 C 301.84375 208.371094 300.597656 207.980469 299.597656 207.789063 C 298.921875 207.660156 298.347656 207.589844 297.695313 207.589844 C 297.097656 207.589844 296.421875 207.648438 295.550781 207.828125 C 294.722656 208.003906 293.714844 208.292969 292.484375 208.769531 L 232.222656 237.175781 M 279.96875 178.601563 L 279.96875 178.601563 M 294.355469 157.699219 L 294.355469 157.699219 "/>
</g>
<path style=" stroke:none;fill-rule:nonzero;fill:rgb(0.799561%,0.799561%,0.799561%);fill-opacity:1;" d="M 225.933594 198.710938 L 225.726563 198.296875 L 226.199219 198.0625 C 226.109375 198.277344 226.019531 198.496094 225.933594 198.710938 M 240.140625 197.074219 C 240.1875 196.960938 240.234375 196.847656 240.28125 196.730469 L 234.078125 194.167969 C 241.058594 190.722656 247.542969 187.546875 253.859375 184.453125 C 253.503906 185.175781 253.128906 185.871094 252.734375 186.546875 C 251.53125 188.574219 250.152344 190.378906 248.464844 191.902344 L 248.433594 191.929688 C 245.859375 194.199219 242.972656 195.773438 240.140625 197.074219 "/>
<path style=" stroke:none;fill-rule:nonzero;fill:rgb(0.799561%,0.799561%,0.799561%);fill-opacity:1;" d="M 225.410156 240.386719 L 220.082031 229.082031 L 231.296875 223.792969 C 231.171875 224.753906 231.078125 225.710938 231.019531 226.660156 C 231.742188 230.097656 232.121094 233.636719 232.222656 237.175781 L 225.410156 240.386719 M 231.265625 209.5 L 227.441406 201.761719 C 227.601563 201.703125 227.761719 201.644531 227.917969 201.589844 L 228.039063 201.546875 C 228.863281 201.238281 230.199219 200.800781 231.753906 200.277344 C 234.097656 199.492188 236.96875 198.5 239.882813 197.191406 C 239.96875 197.152344 240.054688 197.113281 240.140625 197.074219 C 238.710938 200.523438 237.292969 203.878906 236.019531 207.148438 L 231.265625 209.5 "/>
<path style=" stroke:none;fill-rule:nonzero;fill:rgb(0.799561%,0.799561%,0.799561%);fill-opacity:1;" d="M 227.441406 201.761719 L 225.933594 198.710938 C 226.019531 198.496094 226.109375 198.277344 226.199219 198.0625 L 231.328125 195.523438 C 232.253906 195.066406 233.171875 194.613281 234.078125 194.167969 L 240.28125 196.730469 C 240.234375 196.847656 240.1875 196.960938 240.140625 197.074219 C 240.054688 197.113281 239.96875 197.152344 239.882813 197.191406 C 236.96875 198.5 234.097656 199.492188 231.753906 200.277344 C 230.199219 200.800781 228.863281 201.238281 228.039063 201.546875 L 227.917969 201.589844 C 227.761719 201.644531 227.601563 201.703125 227.441406 201.761719 "/>
<path style=" stroke:none;fill-rule:nonzero;fill:rgb(1.199341%,1.599121%,1.599121%);fill-opacity:1;" d="M 101.75 237.535156 C 81.804688 227.730469 61.011719 217.769531 40.382813 208.152344 C 39.09375 207.933594 37.972656 207.851563 36.910156 207.851563 C 36.90625 207.851563 36.902344 207.851563 36.898438 207.851563 C 34.855469 207.851563 32.976563 208.167969 30.613281 208.59375 C 28.269531 209.007813 25.445313 209.527344 22.050781 209.527344 C 22.039063 209.527344 22.027344 209.527344 22.019531 209.527344 C 19.429688 209.527344 16.546875 209.210938 13.363281 208.414063 C 12.425781 208.1875 11.296875 207.878906 10.074219 207.4375 C 8.832031 206.984375 7.488281 206.402344 6.113281 205.546875 C 5.203125 204.972656 4.273438 204.277344 3.390625 203.382813 C 2.222656 202.199219 1.132813 200.609375 0.527344 198.683594 C 0.179688 197.585938 0 196.402344 0 195.21875 C 0 193.773438 0.261719 192.339844 0.722656 190.964844 C 1.179688 189.597656 1.828125 188.28125 2.640625 186.976563 C 4.871094 183.34375 7.527344 180.707031 9.917969 178.558594 C 11.671875 176.992188 13.273438 175.652344 14.703125 174.300781 C 14.804688 172.089844 14.898438 169.707031 15.152344 167.191406 C 15.5 163.78125 16.164063 160.082031 17.75 156.34375 C 17.851563 156.101563 17.992188 155.820313 18.125 155.597656 C 19.148438 153.871094 20.25 152.375 21.59375 151.085938 C 22.921875 149.804688 24.554688 148.734375 26.367188 148.144531 C 27.558594 147.75 28.792969 147.570313 29.945313 147.570313 C 29.953125 147.570313 29.960938 147.570313 29.96875 147.570313 C 31.820313 147.574219 33.417969 147.980469 34.804688 148.464844 C 36.195313 148.953125 37.410156 149.539063 38.582031 150.121094 L 39.03125 150.367188 C 40.917969 151.511719 42.550781 152.746094 43.949219 154.050781 C 45.351563 155.347656 46.515625 156.714844 47.472656 158.066406 C 49.398438 160.777344 50.503906 163.351563 51.476563 165.421875 C 52.121094 166.8125 52.703125 168 53.367188 169.0625 C 54.1875 170.371094 55.097656 171.527344 56.578125 172.777344 C 64.664063 177.21875 72.136719 180.953125 79.695313 184.605469 C 80.113281 184.804688 80.53125 185.007813 80.945313 185.207031 C 81.246094 185.796875 81.558594 186.367188 81.886719 186.925781 C 83.085938 188.949219 84.46875 190.757813 86.152344 192.28125 L 86.183594 192.308594 C 88.636719 194.484375 91.292969 196.113281 93.980469 197.410156 C 95.375 200.773438 96.753906 204.046875 97.996094 207.242188 C 89.664063 203.175781 81.984375 199.59375 74.257813 195.859375 C 66.445313 192.085938 58.585938 188.15625 50.042969 183.445313 C 49.71875 183.269531 49.453125 183.089844 49.164063 182.859375 C 46.746094 180.9375 44.890625 178.839844 43.484375 176.789063 C 42.078125 174.738281 41.117188 172.773438 40.320313 171.070313 C 39.785156 169.933594 39.324219 168.914063 38.867188 168.003906 C 38.257813 166.785156 37.664063 165.773438 36.933594 164.832031 C 35.980469 163.621094 34.792969 162.457031 32.734375 161.171875 C 31.550781 160.582031 30.648438 160.226563 30.226563 160.121094 C 30.144531 160.203125 30.035156 160.316406 29.910156 160.46875 C 29.691406 160.730469 29.414063 161.105469 29.097656 161.609375 C 28.289063 163.652344 27.84375 165.910156 27.585938 168.460938 C 27.308594 171.164063 27.253906 174.171875 27.054688 177.40625 C 26.964844 178.851563 26.375 180.21875 25.390625 181.273438 C 22.820313 184.023438 20.3125 186.011719 18.277344 187.851563 C 16.226563 189.699219 14.628906 191.347656 13.28125 193.53125 L 13.261719 193.5625 C 12.917969 194.113281 12.722656 194.539063 12.617188 194.816406 C 12.613281 194.832031 12.609375 194.84375 12.601563 194.855469 C 12.710938 194.933594 12.847656 195.015625 13.011719 195.105469 C 13.355469 195.292969 13.804688 195.492188 14.296875 195.671875 C 14.953125 195.910156 15.675781 196.113281 16.339844 196.273438 L 16.382813 196.285156 C 18.652344 196.847656 20.429688 197.027344 22.050781 197.027344 C 22.050781 197.027344 22.054688 197.027344 22.054688 197.027344 C 24.160156 197.027344 26.0625 196.710938 28.417969 196.285156 C 30.753906 195.871094 33.550781 195.351563 36.910156 195.351563 C 36.914063 195.351563 36.921875 195.351563 36.929688 195.351563 C 38.957031 195.351563 41.167969 195.546875 43.550781 196.03125 C 44.0625 196.136719 44.476563 196.269531 44.949219 196.492188 C 64.332031 205.519531 83.863281 214.855469 102.722656 224.089844 C 102.828125 224.949219 102.910156 225.804688 102.960938 226.660156 C 102.214844 230.214844 101.835938 233.878906 101.75 237.535156 M 13.394531 208.421875 L 13.394531 208.421875 M 20.816406 177.015625 L 20.816406 177.015625 "/>
<path style=" stroke:none;fill-rule:nonzero;fill:rgb(0.799561%,0.799561%,0.799561%);fill-opacity:1;" d="M 93.980469 197.410156 C 91.292969 196.113281 88.636719 194.484375 86.183594 192.308594 L 86.152344 192.28125 C 84.46875 190.757813 83.085938 188.949219 81.886719 186.925781 C 81.558594 186.367188 81.246094 185.796875 80.945313 185.207031 C 87.035156 188.140625 93.207031 191.035156 99.785156 194.214844 L 93.699219 196.730469 C 93.792969 196.957031 93.886719 197.183594 93.980469 197.410156 "/>
<path style=" stroke:none;fill-rule:nonzero;fill:rgb(0.799561%,0.799561%,0.799561%);fill-opacity:1;" d="M 103.652344 238.472656 C 103.019531 238.160156 102.382813 237.847656 101.75 237.535156 C 101.835938 233.878906 102.214844 230.214844 102.960938 226.660156 C 102.910156 225.804688 102.828125 224.949219 102.722656 224.089844 C 104.882813 225.144531 107.03125 226.203125 109.175781 227.257813 L 103.652344 238.472656 M 98.292969 207.386719 C 98.195313 207.339844 98.09375 207.289063 97.996094 207.242188 C 96.753906 204.046875 95.375 200.773438 93.980469 197.410156 C 94.816406 197.8125 95.65625 198.183594 96.492188 198.527344 C 98.234375 199.246094 99.976563 199.859375 101.699219 200.421875 L 98.292969 207.386719 "/>
<path style=" stroke:none;fill-rule:nonzero;fill:rgb(0.799561%,0.799561%,0.799561%);fill-opacity:1;" d="M 101.699219 200.421875 C 99.976563 199.859375 98.234375 199.246094 96.492188 198.527344 C 95.65625 198.183594 94.816406 197.8125 93.980469 197.410156 C 93.886719 197.183594 93.792969 196.957031 93.699219 196.730469 L 99.785156 194.214844 C 101.101563 194.851563 102.433594 195.496094 103.785156 196.15625 L 101.699219 200.421875 "/>
</g>
</svg>
