<svg xmlns="http://www.w3.org/2000/svg" viewBox="0 0 119.05 215.56"><defs><style>.cls-1{fill:#444;}</style></defs><g id="Layer_2" data-name="Layer 2"><g id="Layer_1-2" data-name="Layer 1"><path class="cls-1" d="M69.65,190.23c0,1.12,0,2.1,0,3.07q-.11,8.47-.22,16.94c0,2.73-1.77,4.48-4.35,3.62-2.07-.7-3.3,0-4.82,1-1.88,1.15-2.64,1-3.9-.79a3.39,3.39,0,0,0-3.4-1.72,11.63,11.63,0,0,1-2.12-.07c-2-.12-3.86-2.57-3.16-4.48.24-.64,1.2-1,1.7-1.57a2.05,2.05,0,0,0,.59-1.45c-2.38-8.65-4.82-17.29-7.25-25.92a2,2,0,0,0-.26-.34,7.17,7.17,0,0,0-.53.89c-.65,1.46-1.21,3-1.93,4.38-3.4,6.71-3.65,13.9-3.32,21.19a24.54,24.54,0,0,1-.15,4.62c-.29,2-1.58,2.77-3.57,2.32a7.29,7.29,0,0,1-1.49-.42,3.27,3.27,0,0,0-3.58.44,4.64,4.64,0,0,1-4,1,6.16,6.16,0,0,1-2.66-1.31c-.78-.7-1.33-1.21-2.52-.92a5.52,5.52,0,0,1-4.46-.8,3.91,3.91,0,0,1-.95-6.16c.35-.43.73-.85,1.12-1.3-1.87-3.56-3.75-7.08-5.58-10.63A63,63,0,0,1,1.74,164,103.51,103.51,0,0,0,.43,153.1c-.89-6.85-.1-13.72-.19-20.58-.13-9.64,1.71-19.1,2-28.69.25-7,.34-13.94,1-20.87.46-5.41,1.59-10.77,2.46-16.15q1-6.06,2.07-12.09a3.45,3.45,0,0,0-1.52-3.9c-.7-.47-1.26-1.13-1.92-1.66A2.72,2.72,0,0,1,3.6,45.5C4,44.63,4.85,43.93,5.18,43A13,13,0,0,0,5.49,40,5.16,5.16,0,0,0,10,42a2,2,0,0,0,1.37-.75c.82-1.59,1.83-2.85,3.74-3l.31-2.47c2.06,1.28,4.12,2.46,6,3.84a3.21,3.21,0,0,1,.92,2c.12,1,.43,1.38,1.5.94V40.36c.34.17.6.22.72.38A28.59,28.59,0,0,1,28,45.06a3.12,3.12,0,0,1-.94,3.85c-1.14,1-2.51,1.62-3.74,2.47-.37.25-.84.67-.87,1-.56,7-1.07,14.06-1.59,21.23a5.26,5.26,0,0,0,.87-.23c4.91-2.4,10.13-3,15.52-2.84,2.74.1,2.77,0,3.1-2.6.44-3.59.88-7.19,1.23-10.79a3.25,3.25,0,0,0-.67-1.84,13.84,13.84,0,0,0-1.46-1.51,3.43,3.43,0,0,1-1-3.23c.43-1.71.87-3.42,1.32-5.19.52.36,1.26.91,2,1.41,1.74,1.12,2.82.89,4-.79.93-1.36,2-2.67,1.38-4.57l.7-.4a15.2,15.2,0,0,0,.92,1.56,4.74,4.74,0,0,0,1.11,1.08,11.73,11.73,0,0,1,2.51,1.65,11.23,11.23,0,0,1,1.28,2.92c2-.75.71-2.74,1.83-4.09,1.06,2.74,2.15,5.28,3,7.89.47,1.45-.17,2.8-1,4.11a8,8,0,0,0-1.37,3.57c-.26,7.1-.33,14.2-.51,21.3a1.7,1.7,0,0,0,1.14,1.7c3.9,2,7.78,4,11.66,6,.5.25,1,.54,1.62.89-1.06,1.56-2,3.11-3.1,4.56-3.66,4.91-5.1,10.51-5.27,16.52-.21,7.1,1.1,14,2.39,21,1.72,9.28,3.44,18.56,5.08,27.86.43,2.45.48,5,.8,7.43a2.7,2.7,0,0,0,.87,1.75c6.68,4.44,16,5.69,23.28.33a10.09,10.09,0,0,0,2.64-3.19c1.08-2,1.86-4.1,2.82-6.15a6.61,6.61,0,0,1,6.41-4c6.9-.13,11.37,2.86,12.6,8.83a16.31,16.31,0,0,1,.33,5.73,44.1,44.1,0,0,1-2.3,9.25c-2.26,5.73-7,8.86-12.56,11-6.74,2.63-13.65,2.77-20.69,1.6-4-.68-8.08-1.25-12.12-1.86C70.8,190.25,70.33,190.27,69.65,190.23ZM18,90.33c0-1.12,0-2,0-2.9q.4-7.38.86-14.77c.45-7.28.93-14.55,1.38-21.83a1.38,1.38,0,0,1,1.26-1.41,13.89,13.89,0,0,0,2.65-.93c1.42-.67,1.95-1.78,1.53-2.93a2.73,2.73,0,0,0-3.21-1.38,20,20,0,0,0-2.53,1c.09-.9.14-1.74.26-2.57a1.88,1.88,0,0,0-1.44-2.23,5,5,0,0,0-4.34.25c-1.33.73-.91,1.92-1,3-.09,1.33-.54,1.67-1.92,1.49a25.29,25.29,0,0,0-3.35-.31A2.48,2.48,0,0,0,5.6,46.56c1.07.95,2.08,1.95,3.2,2.79a3.55,3.55,0,0,1,1.41,3.71c-1,6.17-1.91,12.35-2.89,18.52-.91,5.71-2,11.38-1.95,17.21,0,3.67-.31,7.34-.51,11-.71,13.29-1.48,26.58-2.12,39.87a76.67,76.67,0,0,0,.17,10.28c.48,5.71,1.63,11.34,1.49,17.12a29.79,29.79,0,0,0,.7,6.29,69.87,69.87,0,0,0,9.83,24.3c1.09,1.72,2.11,3.49,3.2,5.29-1.69.63-3.08,1.43-3.12,3.25a2.65,2.65,0,0,0,.87,2.1,3.72,3.72,0,0,0,2.44-.25c.48-.16.81-.76,1.24-1.12s.86-.63,1.39-1a26.49,26.49,0,0,1,1.37,2.81,2.41,2.41,0,0,0,2.79,1.6,2.49,2.49,0,0,0,2.27-2c.32-1,.05-1.55-.91-1.6-2.31-.11-3.47-1.46-4.23-3.47-.54-1.43-.13-2.18,1.47-2.3a6.93,6.93,0,0,0,2.35-.28c1.9-.89,2.91.46,4,1.45s.6,2.05.11,3.12c-.77,1.7-.66,2.35.94,3.35a3,3,0,0,0,2.41.42c.46-.22.63-1.45.62-2.23,0-1.72-.38-3.45-.35-5.18,0-2.06.3-4.12.52-6.18.59-5.28,1.23-10.58,3.39-15.5a14.1,14.1,0,0,1,2.72-4c1.34-1.38,3.14-1.07,4.22.53a15.28,15.28,0,0,1,1.46,2.88c3.16,8,4.76,16.4,6.53,24.76.6,2.82.58,2.82-1.85,4.15a2,2,0,0,0-.32.23,2.43,2.43,0,0,0,1.76,2.38c2.07.46,3.27-.94,4.65-2.37a13.56,13.56,0,0,1,.56,2.58c.08.53.06,1.18.37,1.53.54.61,2.64.06,3.18-.72a1.9,1.9,0,0,0-.75-2.73c-1.06-.61-2.13-1.2-3.2-1.79s-.85-1.58-.62-2.58,1-.75,1.65-.83c.92-.1,1.84-.37,2.76-.4a2.56,2.56,0,0,1,1.72.43c1,1,1.88,2.2,2.75,3.26a9.27,9.27,0,0,0-1.65,1.91,2.8,2.8,0,0,0-.22,2.17c.53,1,1.61.69,2.54.41a1.53,1.53,0,0,0,1.21-1.76q-.23-9.81-.34-19.62a1.59,1.59,0,0,0-1.15-1.66c-2-.85-4.06-1.73-6.06-2.67-7.85-3.67-13.87-9-15.76-17.89-.22-1-.58-2-.88-3l.38-.2a12.92,12.92,0,0,1,1.35,1.7c.63,1.14,1.15,2.36,1.72,3.54,2.75,5.65,6.56,10.34,12.37,13a77.82,77.82,0,0,0,36.31,7.13,19.32,19.32,0,0,0,8.66-2.3c7.69-4.25,12.78-10.18,12.8-19.54,0-5.52-2.7-8.45-8-9.92-3.4-.94-5.34,0-7,3.12a48.3,48.3,0,0,0-2.06,4.79c-1.11,2.84-2.87,5.14-5.78,6.21a40.86,40.86,0,0,1-8.33,2.5,19.46,19.46,0,0,1-16.77-5.58c-3.87-3.71-7.52-7.65-11.26-11.49-.29-.3-.54-.62-.82-.93,4.2,1.68,6.6,5.48,10.27,8.21a22.79,22.79,0,0,0,0-2.78c-.61-4.52-1.06-9.06-2-13.52-2.18-10.87-4.84-21.63-5.94-32.71-.8-8.12,0-15.67,5.44-22.2,1-1.21,1.83-2.58,2.83-4-1.14-.66-2.11-1.31-3.16-1.81Q56,84.48,47.9,80.7c-1-.48-1.35-1-1-2.17.63-1.89,1-3.84,1.62-6h-15c1.15,1.34,2.81,2.63,3.52,4.31s.54,3.83.76,5.84c.88,0,1.73,0,2.56.15,2,.25,4,0,5.9,1a16.31,16.31,0,0,1,6.39,6.21,7.25,7.25,0,0,1,.41,6.39c-1.85,4.8-6.33,7.37-12,6.84a11.56,11.56,0,0,1-10.37-8.44c-.11-.36-.14-.83-.39-1a2.62,2.62,0,0,0-1.5-.77,1.72,1.72,0,0,0-1.19,1c-.12.3.25.92.57,1.24A16.41,16.41,0,0,0,30,96.7c-1.51,1-4.62.25-5.94-1.11C22.5,94,22.25,92.53,23.29,91l2.46,2.67,1.84-4.16-7.83-4C19.16,86.94,20.59,89.26,18,90.33ZM50.16,51.38c.35-1.26.55-2.06.79-2.86.31-1,.44-2-.91-2.35a2,2,0,0,0-2.76,1.37c-.24.86-.3,1.76-.52,2.62-.29,1.11-.81,1.23-1.62.42a3.23,3.23,0,0,0-3.45-1c-1.43.44-1.78,1.45-.8,2.62a7.61,7.61,0,0,0,1.43,1.35c1.55,1.07,1.88,2.5,1.72,4.3-.34,3.74-.5,7.5-.73,11.25-.06,1,.35,1.44,1.4,1.43,1.74,0,3.48.12,5.21.09,1.31,0,1.53.53,1.19,1.65-.59,2-1.16,4-1.7,6-.09.35-.07,1,.12,1.1,1,.52,2.08.91,3.28,1.41.11-1.86.23-3.41.27-5,.16-6,.34-12,.38-18,0-1.6.31-2.59,2-3,1-.26,1.3-1.49.94-3.15-.26-1.19-1.13-.72-1.8-.67C53.24,51.06,51.91,51.22,50.16,51.38ZM42,100.77a11.26,11.26,0,0,0,6.16-1.61A6.71,6.71,0,0,0,50.84,91,10.54,10.54,0,0,0,36,86.38a7.32,7.32,0,0,0-.85,12.15A11,11,0,0,0,42,100.77ZM27.8,87.11a8.48,8.48,0,0,0,6.69-2.72,5.88,5.88,0,0,0-2.92-9.81,16.2,16.2,0,0,0-2.77-.47c-4.26-.33-7.75,2.53-7.91,6.44S23.56,87.07,27.8,87.11Z"/><path class="cls-1" d="M14.29,0c0,1.21-.06,2.42,0,3.62.2,3.08.5,6.16.71,9.25a13.42,13.42,0,0,1,0,3.23c-.25,1.44-.71,2.83.09,4.24a.72.72,0,0,1,.07.41c-.44,2.82-.87,5.64-1.32,8.45,0,.06-.14.11-.32.22a18.25,18.25,0,0,0-.33-3.29,37.34,37.34,0,0,0-1.48-3.54,2.79,2.79,0,0,1-.35-1.54,13.65,13.65,0,0,0,.4-4.75,34.1,34.1,0,0,1,1-11.58c.4-1.58.75-3.17,1.12-4.76Z"/><path class="cls-1" d="M57.12,11.37c.75,2.11,1.61,4.19,2.2,6.34.21.72-.31,1.62-.36,2.45s.06,1.7.08,2.56a9.56,9.56,0,0,1,0,1.07c0,.32-.22.65-.16.94.95,4.53-.91,8.63-2,12.85,0,.06-.13.1-.4.3,0-1.2.07-2.27,0-3.32-.19-2.71-.5-5.41-.64-8.12A36.79,36.79,0,0,1,56,22.25c0-.32.2-.68.11-1-1-3.41,1.17-6.53.63-9.89Z"/><path class="cls-1" d="M36.43,11.08c.89,2.85,1.69,5.73,2.69,8.54.85,2.41.7,4.85.63,7.31a.82.82,0,0,0,.13.4,5.38,5.38,0,0,1-.34,6,3.17,3.17,0,0,0-.2,1.5c0,.78,0,1.56,0,2.34l-.41.06c-.3-1.37-.56-2.74-.9-4.1-.24-.95-.58-1.87-.88-2.8-.06-.18-.2-.34-.21-.52-.14-3.09-.27-6.18-.42-9.26s-.31-6.28-.46-9.41Z"/><path class="cls-1" d="M47.76,7c0,.89-.06,1.78,0,2.66.19,2.75.48,5.5.61,8.26a39.09,39.09,0,0,1-.24,4.32c0,.28-.19.59-.12.83,1,3.33-1.06,6.39-.62,9.67l-.45,0c-.07-.44-.15-.88-.21-1.32s-.14-1-.18-1.54A4.48,4.48,0,0,0,45,26.69a1.58,1.58,0,0,1-.24-1.32,10.64,10.64,0,0,0,.38-4A28.14,28.14,0,0,1,47.76,7Z"/><path class="cls-1" d="M23.58,8.41c.53,2.18.52,4.46,2.36,6.1a1.09,1.09,0,0,1,.15.9,10.92,10.92,0,0,0-.37,4.44,23.79,23.79,0,0,1-.7,9c-.44,1.85-.84,3.71-1.27,5.57l-.55,0c0-1.31.07-2.63,0-3.93-.17-2.38-.49-4.75-.63-7.13-.08-1.39.05-2.79.11-4.19a6.65,6.65,0,0,0,.09-1.53C22,14.44,23.83,11.53,23.58,8.41Z"/><path class="cls-1" d="M5.68,33.72c-.57-1.58-1.76-3.37-1.74-5.16s-.76-3.51-.76-5.31c0-2.67-.12-5.33-.19-8a2.7,2.7,0,0,1,.32-1.51c.84,2,1.7,4,2.53,6A13.48,13.48,0,0,1,6.55,26a4.14,4.14,0,0,0,.67,1.81A2.06,2.06,0,0,1,7,30.13,15.44,15.44,0,0,0,5.68,33.72Z"/><path class="cls-1" d="M37.73,95.11c-.06,1-.25,2-1.37,2s-1.31-1.08-1.3-2,.18-2,1.34-2S37.64,94.24,37.73,95.11Z"/><path class="cls-1" d="M27.3,84.11c-.08.93-.19,2-1.33,2s-1.31-1.07-1.31-2,.13-2,1.31-2S27.23,83.2,27.3,84.11Z"/></g></g></svg>